<?xml version="1.0" encoding="utf-8"?>
<!-- Generator: Adobe Illustrator 16.0.0, SVG Export Plug-In . SVG Version: 6.00 Build 0)  -->
<!DOCTYPE svg PUBLIC "-//W3C//DTD SVG 1.1//EN" "http://www.w3.org/Graphics/SVG/1.1/DTD/svg11.dtd">
<svg version="1.1" id="Layer_1" xmlns="http://www.w3.org/2000/svg" xmlns:xlink="http://www.w3.org/1999/xlink" x="0px" y="0px"
	 width="30px" height="38px" viewBox="0 0 30 38" enable-background="new 0 0 30 38" xml:space="preserve">
<g>
	<path fill="#0096FF" d="M19,2c0.569,0,1.598,0.425,2,0.828L27.171,9C27.574,9.403,28,10.431,28,11v25H2V2H19 M19,0H2
		C0.9,0,0,0.9,0,2v34c0,1.1,0.9,2,2,2h26c1.1,0,2-0.9,2-2V11c0-1.1-0.637-2.636-1.414-3.414l-6.172-6.172C21.637,0.636,20.1,0,19,0
		L19,0z"/>
</g>
<g>
	<g>
		<path fill="#0096FF" d="M6.63,22.513l4.438-5.537H6.97v-0.799h5.217v0.799l-4.428,5.537h4.548v0.8H6.63V22.513z"/>
		<path fill="#0096FF" d="M14.339,16.177h0.95v7.136h-0.95V16.177z"/>
		<path fill="#0096FF" d="M17.89,16.177h3.128c1.43,0,2.189,0.779,2.189,2.108s-0.76,2.119-2.189,2.109h-2.179v2.918H17.89V16.177z
			 M18.839,19.595h1.858c1.08,0.01,1.56-0.46,1.56-1.31s-0.479-1.31-1.56-1.31h-1.858V19.595z"/>
	</g>
</g>
</svg>
