<?xml version="1.0" encoding="utf-8"?>
<!-- Generator: Adobe Illustrator 16.0.0, SVG Export Plug-In . SVG Version: 6.00 Build 0)  -->
<!DOCTYPE svg PUBLIC "-//W3C//DTD SVG 1.1//EN" "http://www.w3.org/Graphics/SVG/1.1/DTD/svg11.dtd">
<svg version="1.1" id="Layer_1" xmlns="http://www.w3.org/2000/svg" xmlns:xlink="http://www.w3.org/1999/xlink" x="0px" y="0px"
	 width="30px" height="38px" viewBox="0 0 30 38" enable-background="new 0 0 30 38" xml:space="preserve">
<g>
	<g>
		<path fill="#0096FF" d="M19,2c0.569,0,1.598,0.425,2,0.828L27.171,9C27.574,9.403,28,10.431,28,11v25H2V2H19 M19,0H2
			C0.9,0,0,0.9,0,2v34c0,1.1,0.9,2,2,2h26c1.1,0,2-0.9,2-2V11c0-1.1-0.637-2.636-1.414-3.414l-6.172-6.172C21.637,0.636,20.1,0,19,0
			L19,0z"/>
	</g>
	<path fill="#0096FF" d="M4.124,16.17h2.448c2.199,0,3.428,1.109,3.428,3.397c0,2.389-1.049,3.738-3.428,3.738H4.124V16.17z
		 M6.652,22.506c0.65,0,2.399-0.18,2.399-2.809c0-1.698-0.63-2.729-2.379-2.729H5.073v5.537H6.652z"/>
	<path fill="#0096FF" d="M14.935,16c2.269,0,3.417,1.789,3.417,3.737c0,1.949-1.148,3.738-3.417,3.738s-3.418-1.789-3.418-3.738
		C11.517,17.789,12.666,16,14.935,16z M14.935,22.676c1.74,0,2.468-1.499,2.468-2.938c0-1.438-0.728-2.938-2.468-2.938
		c-1.739,0-2.469,1.5-2.469,2.938C12.466,21.177,13.196,22.676,14.935,22.676z"/>
	<path fill="#0096FF" d="M22.992,16c1.488,0,2.729,0.799,2.938,2.318H24.98c-0.21-1.01-1-1.52-1.999-1.52
		c-1.699,0-2.419,1.399-2.419,2.889c0,1.629,0.72,2.988,2.43,2.988c1.238,0,1.979-0.879,2.059-2.059H26
		c-0.189,1.789-1.279,2.858-3.088,2.858c-2.209,0-3.299-1.639-3.299-3.718S20.793,16,22.992,16z"/>
</g>
</svg>
