<?xml version="1.0" encoding="utf-8"?>
<!-- Generator: Adobe Illustrator 16.0.0, SVG Export Plug-In . SVG Version: 6.00 Build 0)  -->
<!DOCTYPE svg PUBLIC "-//W3C//DTD SVG 1.1//EN" "http://www.w3.org/Graphics/SVG/1.1/DTD/svg11.dtd">
<svg version="1.1" id="Layer_1" xmlns="http://www.w3.org/2000/svg" xmlns:xlink="http://www.w3.org/1999/xlink" x="0px" y="0px"
	 width="30px" height="38px" viewBox="0 0 30 38" enable-background="new 0 0 30 38" xml:space="preserve">
<g>
	<path fill="#0096FF" d="M19,2c0.569,0,1.598,0.425,2,0.828L27.171,9C27.574,9.403,28,10.431,28,11v25H2V2H19 M19,0H2
		C0.9,0,0,0.9,0,2v34c0,1.1,0.9,2,2,2h26c1.1,0,2-0.9,2-2V11c0-1.1-0.637-2.636-1.414-3.414l-6.172-6.172C21.637,0.636,20.1,0,19,0
		L19,0z"/>
</g>
<g>
	<g>
		<path fill="#0096FF" d="M5.65,16.177h3.128c1.429,0,2.189,0.779,2.189,2.108s-0.76,2.119-2.189,2.109H6.599v2.918H5.65V16.177z
			 M6.599,19.595h1.859c1.08,0.01,1.559-0.46,1.559-1.31s-0.479-1.31-1.559-1.31H6.599V19.595z"/>
		<path fill="#0096FF" d="M12.63,16.177h2.448c2.199,0,3.428,1.109,3.428,3.397c0,2.389-1.049,3.738-3.428,3.738H12.63V16.177z
			 M15.158,22.513c0.65,0,2.398-0.18,2.398-2.809c0-1.698-0.629-2.729-2.378-2.729h-1.599v5.537H15.158z"/>
		<path fill="#0096FF" d="M20.17,16.177h4.688v0.799h-3.738v2.27h3.278v0.799h-3.278v3.269H20.17V16.177z"/>
	</g>
</g>
</svg>
