<?xml version="1.0" encoding="utf-8"?>
<!-- Generator: Adobe Illustrator 18.0.0, SVG Export Plug-In . SVG Version: 6.00 Build 0)  -->
<!DOCTYPE svg PUBLIC "-//W3C//DTD SVG 1.1//EN" "http://www.w3.org/Graphics/SVG/1.1/DTD/svg11.dtd">
<svg version="1.1" id="Слой_1" xmlns="http://www.w3.org/2000/svg" xmlns:xlink="http://www.w3.org/1999/xlink" x="0px" y="0px"
	 viewBox="0 0 260 1280" enable-background="new 0 0 260 1280" xml:space="preserve">
<rect fill="#FFFFFF" width="260" height="1280"/>
<g>
	<path fill="#5F747D" d="M212.4,246.6c0,1.1-0.9,2-2,2H42.6c-1.1,0-2-0.9-2-2V85.7c0-1.1,0.8-2.4,1.8-2.9l80.8-39.3
		c1-0.5,2.6-0.5,3.6,0l83.7,39.3c1,0.5,1.8,1.8,1.8,2.8V246.6z"/>
</g>
<g>
	<path fill="#5F747D" d="M32,77c0,1.1,0.8,1.6,1.8,1.1l89.3-43.5c1-0.5,2.6-0.5,3.6,0l92.5,43.5c1,0.5,1.8,0,1.8-1.1V52.4
		c0-1.1-0.8-2.4-1.8-2.9L126.7,6c-1-0.5-2.6-0.5-3.6,0L33.8,49.5c-1,0.5-1.8,1.8-1.8,2.9V77z"/>
</g>
<g>
	
		<text transform="matrix(1 0 0 1 49.9243 140.9932)" fill="#FFFFFF" font-family="'UC-Icons'" font-size="78.3824" letter-spacing="-7">65</text>
</g>
<g>
	
		<text transform="matrix(1 0 0 1 50.9199 238.3604)" fill="#FFFFFF" font-family="'UC-Icons'" font-size="78.3824" letter-spacing="-7">4&quot;</text>
</g>
<g>
	<path fill="none" stroke="#14C400" stroke-width="2.7736" stroke-miterlimit="10" d="M87.9,138v8.5c0,3.1,2.5,5.5,5.5,5.5H242
		c3.1,0,5.5,2.5,5.5,5.5v254.9c0,3.1-2.5,5.5-5.5,5.5h-73"/>
</g>
<g>
	<path fill="none" stroke="#14C400" stroke-width="2.7736" stroke-miterlimit="10" d="M158.9,138c0,0,0,1.9,0,4.3
		c0,2.4,2.5,4.3,5.5,4.3h83.3c3.1,0,5.5,2.5,5.5,5.5v266.3c0,3.1-2.5,5.5-5.5,5.5H169"/>
</g>
<g>
	<path fill="none" stroke="#14C400" stroke-width="2.7736" stroke-miterlimit="10" d="M87.9,170.1v-7c0-3.1,2.5-5.5,5.5-5.5h142.7
		c3.1,0,5.5,2.5,5.5,5.5v243.3c0,3.1-2.5,5.5-5.5,5.5H169"/>
</g>
<g>
	<path fill="none" stroke="#14C400" stroke-width="2.7736" stroke-miterlimit="10" d="M158.9,170.1c0,0,0-1.6,0-3.5
		c0-1.9,2.5-3.5,5.5-3.5h66c3.1,0,5.5,2.5,5.5,5.5v231.9c0,3.1-2.5,5.5-5.5,5.5H169"/>
</g>
<g>
	<g>
		<path fill="#5F747D" d="M175.9,467.6c0,1.1-0.9,2-2,2H70.4c-1.1,0-2-0.9-2-2V364c0-1.1,0.9-2,2-2h103.6c1.1,0,2,0.9,2,2V467.6z"/>
	</g>
	<g>
		<text transform="matrix(1 0 0 1 85 435)" fill="#FFFFFF" font-family="'HelveticaNeue-Light'" font-size="52" letter-spacing="1">UC</text>
	</g>
</g>
<g>
	<g>
		<g>
			<path fill="#5F747D" d="M182.4,627.9c0.5-2,0.8-4,0.8-6.1c0-13.3-10.8-24.1-24.1-24.1c-6.2,0-11.9,2.4-16.2,6.3
				c-5.1-12.3-17.2-21-31.3-21c-18.7,0-33.9,15.2-33.9,33.9c0,3.5,0.5,6.9,1.5,10.1c-13.1,2.6-23,14.1-23,28
				c0,15.8,12.8,28.5,28.5,28.5c15.8,0,72.8,0,88.6,0c15.8,0,28.5-12.8,28.5-28.5C202,642.3,193.8,631.7,182.4,627.9z"/>
		</g>
	</g>
	<g>
		<text transform="matrix(1 0 0 1 91 662)" fill="#FFFFFF" font-family="'HelveticaNeue-Light'" font-size="52" letter-spacing="1">UC</text>
	</g>
</g>
<g>
	<g>
		<polygon fill="#5F747D" points="151.4,935.7 151.4,919.1 112,919.1 112,935.7 90.8,935.7 90.8,941 172.5,941 172.5,935.7 		"/>
	</g>
	<g>
		<g>
			<path fill="#5F747D" d="M189.6,828.3H73.8c-2.5,0-4.5,1.9-4.5,4.3v79.5c0,2.3,2,4.3,4.5,4.3h115.8c2.5,0,4.5-1.9,4.5-4.3v-79.5
				C194,830.2,192,828.3,189.6,828.3z"/>
		</g>
		<rect x="77.9" y="836.8" fill="#FFFFFF" width="107.6" height="64.8"/>
	</g>
	<g>
		<g>
			<path fill="#5F747D" d="M60.4,942.3c-2.8,0-5.1-2.2-5.1-5v-68.7c0-2.7,2.3-5,5.1-5h56c2.8,0,5.1,2.2,5.1,5v68.7
				c0,2.7-2.3,5-5.1,5H60.4z"/>
			<g>
				<path fill="#FFFFFF" d="M116.4,864.9c2.1,0,3.9,1.7,3.9,3.7v68.7c0,2-1.7,3.7-3.9,3.7h-56c-2.1,0-3.9-1.7-3.9-3.7v-68.7
					c0-2,1.7-3.7,3.9-3.7H116.4 M116.4,862.4h-56c-3.5,0-6.4,2.8-6.4,6.3v68.7c0,3.5,2.9,6.3,6.4,6.3h56c3.5,0,6.4-2.8,6.4-6.3
					v-68.7C122.9,865.2,120,862.4,116.4,862.4L116.4,862.4z"/>
			</g>
		</g>
		<ellipse fill="#FFFFFF" cx="88.3" cy="934.2" rx="3" ry="2.9"/>
		<rect x="63.8" y="872.1" fill="#FFFFFF" width="49.3" height="56.1"/>
	</g>
	<g>
		<g>
			<path fill="#5F747D" d="M49.6,942.3c-2.8,0-5.1-2.2-5.1-5v-40.6c0-2.7,2.3-5,5.1-5h23.1c2.8,0,5.2,2.2,5.2,5v40.6
				c0,2.7-2.3,5-5.2,5H49.6z"/>
			<g>
				<path fill="#FFFFFF" d="M72.8,893c2.1,0,3.9,1.7,3.9,3.7v40.6c0,2-1.7,3.7-3.9,3.7H49.6c-2.1,0-3.9-1.7-3.9-3.7v-40.6
					c0-2,1.7-3.7,3.9-3.7H72.8 M72.8,890.4H49.6c-3.5,0-6.4,2.8-6.4,6.3v40.6c0,3.5,2.9,6.3,6.4,6.3h23.1c3.5,0,6.4-2.8,6.4-6.3
					v-40.6C79.2,893.3,76.3,890.4,72.8,890.4L72.8,890.4z"/>
			</g>
		</g>
		<path fill="#FFFFFF" d="M61.1,937.1c-1.7,0-3-1.3-3-2.9c0-1.6,1.3-2.9,3-2.9c1.7,0,3,1.3,3,2.9C64.1,935.8,62.7,937.1,61.1,937.1z
			"/>
		<rect x="51.8" y="899.3" fill="#FFFFFF" width="18.7" height="29"/>
	</g>
</g>
<g>
	<g>
		<g>
			<path fill="#5F747D" d="M155.9,1080.1c0,13.7-11.1,24.8-24.8,24.8c-13.7,0-24.8-11.1-24.8-24.8c0-13.7,11.1-24.8,24.8-24.8
				C144.8,1055.3,155.9,1066.4,155.9,1080.1z"/>
			<circle fill="#FFFFFF" cx="122.3" cy="1074.2" r="1.7"/>
			<circle fill="#FFFFFF" cx="140.1" cy="1074.2" r="1.7"/>
			<path fill="none" stroke="#FFFFFF" stroke-width="1.5268" stroke-miterlimit="10" d="M141.8,1086.9c-5.1,7.3-16.1,7.3-22.1,0"/>
			<path fill="#5F747D" d="M164.9,1113c-4.8,0-11,0-18.6,0l-15.1,20.4L116,1113c-7.6,0-13.8,0-18.6,0c-4.8,0-12.4,6.2-12.4,14.5
				c0,8.3,0,70.7,0,70.7h92.3c0,0,0-62.5,0-70.7C177.3,1119.2,169.7,1113,164.9,1113z"/>
		</g>
	</g>
	<g>
		<path fill="#FFFFFF" d="M114.7,1152.8H94.1c-1.5,0-2.7,1.2-2.7,2.7v33.5c0,1.5,1.2,2.7,2.7,2.7h20.5c1.5,0,2.7-1.2,2.7-2.7v-33.5
			C117.3,1154,116.1,1152.8,114.7,1152.8z M104.3,1188.5c-1.2,0-2.2-1-2.2-2.2c0-1.2,1-2.2,2.2-2.2c1.2,0,2.2,1,2.2,2.2
			C106.5,1187.5,105.5,1188.5,104.3,1188.5z M113.5,1181.6H95.3v-24.9h18.1V1181.6z"/>
		<g>
			<path fill="none" stroke="#FFFFFF" stroke-width="1.6286" stroke-miterlimit="10" d="M114.9,1148.8c3.7,0,6.7,3,6.7,6.7"/>
			<path fill="none" stroke="#FFFFFF" stroke-width="1.6286" stroke-miterlimit="10" d="M114.9,1143.9c6.4,0,11.6,5.2,11.6,11.6"/>
			<path fill="none" stroke="#FFFFFF" stroke-width="1.6286" stroke-miterlimit="10" d="M114.9,1138.9c9.2,0,16.7,7.5,16.7,16.7"/>
		</g>
	</g>
</g>
<g>
	<g>
		<g>
			<path fill="none" stroke="#14C400" stroke-width="2.7736" stroke-miterlimit="10" d="M50.9,632.2l-39.3,0c-3.1,0-5.5-2.5-5.5-5.5
				V423.5c0-3.1,2.5-5.5,5.5-5.5H61"/>
		</g>
		<polyline fill="none" stroke="#14C400" stroke-width="2.7736" stroke-miterlimit="10" points="36.1,648 52,632.1 36.1,616.3 		"/>
	</g>
</g>
<g>
	<g>
		<g>
			<path fill="none" stroke="#14C400" stroke-width="2.7736" stroke-miterlimit="10" d="M74.9,1088.2l-63.3,0
				c-3.1,0-5.5-2.5-5.5-5.5V883.9c0-3.1,2.5-5.5,5.5-5.5H37"/>
		</g>
		<polyline fill="none" stroke="#14C400" stroke-width="2.7736" stroke-miterlimit="10" points="60.1,1104 76,1088.1 60.1,1072.3 		
			"/>
		<polyline fill="none" stroke="#14C400" stroke-width="2.7736" stroke-miterlimit="10" points="23,894.3 38.9,878.5 23,862.6 		"/>
	</g>
</g>
<g>
	<g>
		<g>
			<path fill="none" stroke="#14C400" stroke-width="2.7736" stroke-miterlimit="10" d="M213.1,877.3l34.6,0c3.1,0,5.5-2.5,5.5-5.5
				V636.5c0-3.1-2.5-5.5-5.5-5.5H203"/>
		</g>
		<polyline fill="none" stroke="#14C400" stroke-width="2.7736" stroke-miterlimit="10" points="227.9,893.1 212,877.3 227.9,861.4 
					"/>
	</g>
</g>
<g>
	<text transform="matrix(1 0 0 1 43.8599 275.7803)"><tspan x="0" y="0" fill="#666666" font-family="'HelveticaNeue-Light'" font-size="17">В любые устройства</tspan><tspan x="-3.1" y="21" fill="#666666" font-family="'HelveticaNeue-Light'" font-size="17">монтируются нужные</tspan><tspan x="5.1" y="42" fill="#666666" font-family="'HelveticaNeue-Light'" font-size="17">счётчики и датчики</tspan></text>
</g>
<g>
	<text transform="matrix(1 0 0 1 80.4131 498.9229)"><tspan x="0" y="0" fill="#666666" font-family="'HelveticaNeue-Light'" font-size="17">Показания</tspan><tspan x="-51.3" y="21" fill="#666666" font-family="'HelveticaNeue-Light'" font-size="17">передаются на UC HUB</tspan><tspan x="-38.6" y="42" fill="#666666" font-family="'HelveticaNeue-Light'" font-size="17">с 3G и WiFi модулем</tspan></text>
</g>
<g>
	<text transform="matrix(1 0 0 1 14.7222 970.4043)"><tspan x="0" y="0" fill="#666666" font-family="'HelveticaNeue-Light'" font-size="17">UC APP выводит информацию</tspan><tspan x="15" y="21" fill="#666666" font-family="'HelveticaNeue-Light'" font-size="17">в удобном и современном</tspan><tspan x="69.8" y="42" fill="#666666" font-family="'HelveticaNeue-Light'" font-size="17">интерфейсе</tspan></text>
</g>
<g>
	<text transform="matrix(1 0 0 1 65.9658 711)"><tspan x="0" y="0" fill="#666666" font-family="'HelveticaNeue-Light'" font-size="17">Сырые данные</tspan><tspan x="-30.4" y="21" fill="#666666" font-family="'HelveticaNeue-Light'" font-size="17">поступают в облачный</tspan><tspan x="-27.5" y="42" fill="#666666" font-family="'HelveticaNeue-Light'" font-size="17">сервис UC, здесь они</tspan><tspan x="-7.6" y="63" fill="#666666" font-family="'HelveticaNeue-Light'" font-size="17">обрабатываются</tspan><tspan x="-8.9" y="84" fill="#666666" font-family="'HelveticaNeue-Light'" font-size="17">и анализируются</tspan></text>
</g>
<g>
	<text transform="matrix(1 0 0 1 49.4946 1228)"><tspan x="0" y="0" fill="#666666" font-family="'HelveticaNeue-Light'" font-size="17">Счастливый абонент</tspan><tspan x="-9.9" y="21" fill="#666666" font-family="'HelveticaNeue-Light'" font-size="17">имеет доступ к данным</tspan><tspan x="-0.8" y="42" fill="#666666" font-family="'HelveticaNeue-Light'" font-size="17">с любого устройства</tspan></text>
</g>
<rect id="_x3C_Slice_x3E__5_" fill="none" width="260" height="1280"/>
</svg>
