<?xml version="1.0" encoding="utf-8"?>
<!-- Generator: Adobe Illustrator 18.0.0, SVG Export Plug-In . SVG Version: 6.00 Build 0)  -->
<!DOCTYPE svg PUBLIC "-//W3C//DTD SVG 1.1//EN" "http://www.w3.org/Graphics/SVG/1.1/DTD/svg11.dtd">
<svg version="1.1" id="Слой_1" xmlns="http://www.w3.org/2000/svg" xmlns:xlink="http://www.w3.org/1999/xlink" x="0px" y="0px"
	 viewBox="0 0 1170 382.8" enable-background="new 0 0 1170 382.8" xml:space="preserve">
<rect fill="#FFFFFF" width="1170" height="380"/>
<g>
	<g>
		<g>
			<path fill="#5F747D" d="M216.2,288.6c0,1.1-0.9,2-2,2H14.9c-1.1,0-2-0.9-2-2v-194c0-1.1,0.8-2.4,1.8-2.9l96.3-47
				c1-0.5,2.6-0.5,3.6,0l99.8,47c1,0.5,1.8,1.7,1.8,2.8V288.6z"/>
		</g>
		<g>
			<path fill="#5F747D" d="M2,86.9C2,88,2.8,88.5,3.8,88l107-53c1-0.5,2.6-0.5,3.6,0l111,53c1,0.5,1.8,0,1.8-1.1v-30
				c0-1.1-0.8-2.4-1.8-2.9l-111-53c-1-0.5-2.6-0.5-3.6,0l-107,53c-1,0.5-1.8,1.8-1.8,2.9V86.9z"/>
		</g>
		<g>
			
				<text transform="matrix(1 0 0 1 23.6426 162.6045)" fill="#FFFFFF" font-family="'UC-Icons'" font-size="93.1701" letter-spacing="-9">65</text>
		</g>
		<g>
			
				<text transform="matrix(1 0 0 1 24.8262 278.3408)" fill="#FFFFFF" font-family="'UC-Icons'" font-size="93.1701" letter-spacing="-9">4&quot;</text>
		</g>
		<g>
			<path fill="none" stroke="#14C400" stroke-width="3.2968" stroke-miterlimit="10" d="M68.8,159.1v10.1c0,3.6,3,6.6,6.6,6.6h152.9
				c3.6,0,8.8,2,11.5,4.4l43.9,39c2.7,2.4,7.9,4.4,11.5,4.4h22.9"/>
		</g>
		<g>
			<path fill="none" stroke="#14C400" stroke-width="3.2968" stroke-miterlimit="10" d="M153.2,159.1c0,0,0,2.3,0,5.1
				c0,2.8,3,5.1,6.6,5.1h71.8c3.6,0,8.8,2,11.5,4.4l43.9,38.6c2.7,2.4,7.9,4.4,11.5,4.4h19.6"/>
		</g>
		<g>
			<path fill="none" stroke="#14C400" stroke-width="3.2968" stroke-miterlimit="10" d="M68.8,197.2v-8.3c0-3.6,3-6.6,6.6-6.6h149.5
				c3.6,0,8.8,2,11.5,4.4l44,39.4c2.7,2.4,7.9,4.4,11.5,4.4h26.3"/>
		</g>
		<g>
			<path fill="none" stroke="#14C400" stroke-width="3.2968" stroke-miterlimit="10" d="M153.2,197.2c0,0,0-1.9,0-4.2
				c0-2.3,3-4.2,6.6-4.2h61.8c3.6,0,8.8,2,11.5,4.4l44,39.9c2.7,2.4,7.9,4.4,11.5,4.4h29.6"/>
		</g>
		<g>
			<g>
				<path fill="#5F747D" d="M433.4,286.6c0,2.2-1.8,4-4,4H309.5c-2.2,0-4-1.8-4-4V166.7c0-2.2,1.8-4,4-4h119.9c2.2,0,4,1.8,4,4
					V286.6z"/>
			</g>
			<g>
				
					<text transform="matrix(1 0 0 1 325.6299 250.1123)" fill="#FFFFFF" font-family="'HelveticaNeue-Light'" font-size="60.7399" letter-spacing="1">UC</text>
			</g>
		</g>
		<g>
			<g>
				<g>
					<path fill="#5F747D" d="M646.3,54.4c0.6-2.3,1-4.8,1-7.3c0-15.8-12.8-28.6-28.6-28.6c-7.4,0-14.1,2.8-19.2,7.5
						C593.4,11.3,579.1,1,562.3,1C540,1,522,19,522,41.2c0,4.2,0.6,8.2,1.8,12c-15.6,3-27.4,16.8-27.4,33.3
						c0,18.7,15.2,33.9,33.9,33.9c18.7,0,86.6,0,105.3,0c18.7,0,33.9-15.2,33.9-33.9C669.5,71.5,659.8,58.8,646.3,54.4z"/>
				</g>
			</g>
			<g>
				
					<text transform="matrix(1 0 0 1 540.354 91.79)" fill="#FFFFFF" font-family="'HelveticaNeue-Light'" font-size="60.7399" letter-spacing="1">UC</text>
			</g>
		</g>
		<g>
			<g>
				<polygon fill="#5F747D" points="819.8,284.2 819.8,264.5 772.9,264.5 772.9,284.2 747.8,284.2 747.8,290.6 844.9,290.6 
					844.9,284.2 				"/>
			</g>
			<g>
				<g>
					<path fill="#5F747D" d="M865.1,156.6H727.5c-2.9,0-5.3,2.3-5.3,5.1v94.5c0,2.8,2.4,5.1,5.3,5.1h137.6c2.9,0,5.3-2.3,5.3-5.1
						v-94.5C870.5,158.8,868.1,156.6,865.1,156.6z"/>
				</g>
				<rect x="732.4" y="166.6" fill="#FFFFFF" width="127.9" height="77"/>
			</g>
			<g>
				<g>
					<path fill="#5F747D" d="M711.7,292.1c-3.4,0-6.1-2.7-6.1-5.9v-81.7c0-3.3,2.7-5.9,6.1-5.9h66.6c3.4,0,6.1,2.7,6.1,5.9v81.7
						c0,3.3-2.7,5.9-6.1,5.9H711.7z"/>
					<g>
						<path fill="#FFFFFF" d="M778.2,200.1c2.5,0,4.6,2,4.6,4.4v81.7c0,2.4-2.1,4.4-4.6,4.4h-66.6c-2.5,0-4.6-2-4.6-4.4v-81.7
							c0-2.4,2.1-4.4,4.6-4.4H778.2 M778.2,197h-66.6c-4.2,0-7.6,3.3-7.6,7.4v81.7c0,4.1,3.4,7.4,7.6,7.4h66.6
							c4.2,0,7.7-3.3,7.7-7.4v-81.7C785.9,200.4,782.5,197,778.2,197L778.2,197z"/>
					</g>
				</g>
				<path fill="#FFFFFF" d="M744.8,285.8c-2,0-3.6-1.5-3.6-3.4c0-1.9,1.6-3.4,3.6-3.4c2,0,3.6,1.5,3.6,3.4
					C748.3,284.3,746.7,285.8,744.8,285.8z"/>
				<rect x="715.7" y="208.7" fill="#FFFFFF" width="58.6" height="66.7"/>
			</g>
			<g>
				<g>
					<path fill="#5F747D" d="M698.8,292.1c-3.4,0-6.1-2.7-6.1-5.9v-48.3c0-3.3,2.7-5.9,6.1-5.9h27.5c3.4,0,6.1,2.7,6.1,5.9v48.3
						c0,3.3-2.7,5.9-6.1,5.9H698.8z"/>
					<g>
						<path fill="#FFFFFF" d="M726.3,233.5c2.5,0,4.6,2,4.6,4.4v48.3c0,2.4-2.1,4.4-4.6,4.4h-27.5c-2.5,0-4.6-2-4.6-4.4v-48.3
							c0-2.4,2.1-4.4,4.6-4.4H726.3 M726.3,230.4h-27.5c-4.2,0-7.6,3.3-7.6,7.4v48.3c0,4.1,3.4,7.4,7.6,7.4h27.5
							c4.2,0,7.7-3.3,7.7-7.4v-48.3C734,233.7,730.6,230.4,726.3,230.4L726.3,230.4z"/>
					</g>
				</g>
				<path fill="#FFFFFF" d="M712.4,285.8c-2,0-3.6-1.5-3.6-3.4c0-1.9,1.6-3.4,3.6-3.4c2,0,3.6,1.5,3.6,3.4
					C716,284.3,714.4,285.8,712.4,285.8z"/>
				<rect x="701.4" y="240.9" fill="#FFFFFF" width="22.3" height="34.4"/>
			</g>
		</g>
		<g>
			<g>
				<g>
					<path fill="#5F747D" d="M1080.4,30.9c0,16.3-13.2,29.5-29.5,29.5c-16.3,0-29.5-13.2-29.5-29.5c0-16.3,13.2-29.5,29.5-29.5
						C1067.2,1.4,1080.4,14.6,1080.4,30.9z"/>
					<circle fill="#FFFFFF" cx="1040.7" cy="24.1" r="2"/>
					<circle fill="#FFFFFF" cx="1061.6" cy="24.1" r="2"/>
					<path fill="#5F747D" d="M1091,68.8c-5.7,0-13.1,0-22.1,0l-18,24.3l-18-24.3c-9,0-16.4,0-22.1,0c-5.7,0-14.7,7.4-14.7,17.2
						c0,9.8,0,84.1,0,84.1h109.7c0,0,0-74.2,0-84.1C1105.8,76.1,1096.8,68.8,1091,68.8z"/>
				</g>
			</g>
			<g>
				<path fill="#FFFFFF" d="M1031.3,116h-24.4c-1.7,0-3.2,1.4-3.2,3.2V159c0,1.7,1.4,3.2,3.2,3.2h24.4c1.7,0,3.2-1.4,3.2-3.2v-39.8
					C1034.5,117.4,1033.1,116,1031.3,116z M1019,158.5c-1.5,0-2.7-1.2-2.7-2.7c0-1.5,1.2-2.7,2.7-2.7c1.5,0,2.7,1.2,2.7,2.7
					C1021.7,157.3,1020.5,158.5,1019,158.5z M1029.9,150.3h-21.6v-29.5h21.6V150.3z"/>
				<g>
					<path fill="none" stroke="#FFFFFF" stroke-width="1.9358" stroke-miterlimit="10" d="M1031.6,111.4c4.4,0,8,3.6,8,8"/>
					<path fill="none" stroke="#FFFFFF" stroke-width="1.9358" stroke-miterlimit="10" d="M1031.6,105.5c7.6,0,13.8,6.2,13.8,13.8"
						/>
					<path fill="none" stroke="#FFFFFF" stroke-width="1.9358" stroke-miterlimit="10" d="M1031.6,99.5c10.9,0,19.8,8.9,19.8,19.8"
						/>
					<path fill="none" stroke="#FFFFFF" stroke-width="1.7996" stroke-miterlimit="10" d="M1063.6,39c-6,8.6-19,8.6-26.1,0"/>
				</g>
			</g>
		</g>
		<g>
			<g>
				<g>
					<path fill="none" stroke="#14C400" stroke-width="3.2968" stroke-miterlimit="10" d="M484.7,57.8l-109.5,0
						c-3.6,0-6.6,3-6.6,6.6v90.8"/>
				</g>
				<polyline fill="none" stroke="#14C400" stroke-width="3.2968" stroke-miterlimit="10" points="467.2,39 486,57.9 467.2,76.7 
									"/>
			</g>
		</g>
		<g>
			<g>
				<g>
					<path fill="none" stroke="#14C400" stroke-width="3.2968" stroke-miterlimit="10" d="M790.9,145.1l0-80.7c0-3.6-3-6.6-6.6-6.6
						H675.8"/>
				</g>
				<polyline fill="none" stroke="#14C400" stroke-width="3.2968" stroke-miterlimit="10" points="809.7,127.6 790.9,146.5 
					772,127.6 				"/>
			</g>
		</g>
		<g>
			<g>
				
					<line fill="none" stroke="#14C400" stroke-width="3.2968" stroke-miterlimit="10" x1="885.1" y1="206.6" x2="978.9" y2="112.8"/>
				<polyline fill="none" stroke="#14C400" stroke-width="3.2968" stroke-miterlimit="10" points="953.3,111.9 979.9,111.9 
					979.9,138.5 				"/>
				<polyline fill="none" stroke="#14C400" stroke-width="3.2968" stroke-miterlimit="10" points="911.1,207.3 884.4,207.3 
					884.4,180.7 				"/>
			</g>
		</g>
		<g>
			<text transform="matrix(1 0 0 1 9.1426 322.8213)"><tspan x="0" y="0" fill="#666666" font-family="'HelveticaNeue-Light'" font-size="21.9062">В любые устройства</tspan><tspan x="-4" y="26.3" fill="#666666" font-family="'HelveticaNeue-Light'" font-size="21.9062">монтируются нужные</tspan><tspan x="6.5" y="52.6" fill="#666666" font-family="'HelveticaNeue-Light'" font-size="21.9062">счётчики и датчики</tspan></text>
		</g>
		<g>
			<text transform="matrix(1 0 0 1 316.5142 322.8213)"><tspan x="0" y="0" fill="#666666" font-family="'HelveticaNeue-Light'" font-size="21.9062">Показания</tspan><tspan x="-66.1" y="26.3" fill="#666666" font-family="'HelveticaNeue-Light'" font-size="21.9062">передаются на UC HUB</tspan><tspan x="-49.7" y="52.6" fill="#666666" font-family="'HelveticaNeue-Light'" font-size="21.9062">с 3G и WiFi модулем</tspan></text>
		</g>
		<g>
			<text transform="matrix(1 0 0 1 643.1245 322.8213)"><tspan x="0" y="0" fill="#666666" font-family="'HelveticaNeue-Light'" font-size="21.9062">UC APP выводит информацию</tspan><tspan x="22.1" y="26.3" fill="#666666" font-family="'HelveticaNeue-Light'" font-size="21.9062">в удобном и современном</tspan><tspan x="94.2" y="52.6" fill="#666666" font-family="'HelveticaNeue-Light'" font-size="21.9062">интерфейсе</tspan></text>
		</g>
		<g>
			<text transform="matrix(1 0 0 1 499.3696 151.9141)"><tspan x="0" y="0" fill="#666666" font-family="'HelveticaNeue-Light'" font-size="21.9062">Сырые данные</tspan><tspan x="-39.2" y="26.3" fill="#666666" font-family="'HelveticaNeue-Light'" font-size="21.9062">поступают в облачный</tspan><tspan x="-35.4" y="52.6" fill="#666666" font-family="'HelveticaNeue-Light'" font-size="21.9062">сервис UC, здесь они</tspan><tspan x="-9.8" y="78.9" fill="#666666" font-family="'HelveticaNeue-Light'" font-size="21.9062">обрабатываются</tspan><tspan x="-11.4" y="105.1" fill="#666666" font-family="'HelveticaNeue-Light'" font-size="21.9062">и анализируются</tspan></text>
		</g>
		<g>
			<text transform="matrix(1 0 0 1 945.6914 205.457)"><tspan x="0" y="0" fill="#666666" font-family="'HelveticaNeue-Light'" font-size="21.9062">Счастливый абонент</tspan><tspan x="-12.8" y="26.3" fill="#666666" font-family="'HelveticaNeue-Light'" font-size="21.9062">имеет доступ к данным</tspan><tspan x="-1" y="52.6" fill="#666666" font-family="'HelveticaNeue-Light'" font-size="21.9062">с любого устройства</tspan></text>
		</g>
	</g>
</g>
<rect id="_x3C_Slice_x3E__4_" fill="none" width="1170" height="380"/>
</svg>
