<?xml version="1.0" encoding="utf-8"?>
<!-- Generator: Adobe Illustrator 18.0.0, SVG Export Plug-In . SVG Version: 6.00 Build 0)  -->
<!DOCTYPE svg PUBLIC "-//W3C//DTD SVG 1.1//EN" "http://www.w3.org/Graphics/SVG/1.1/DTD/svg11.dtd">
<svg version="1.1" id="Слой_1" xmlns="http://www.w3.org/2000/svg" xmlns:xlink="http://www.w3.org/1999/xlink" x="0px" y="0px"
	 viewBox="0 0 1167.3 381.1" enable-background="new 0 0 1167.3 381.1" xml:space="preserve">
<g>
	<g>
		<g>
			<path fill="#5F747D" d="M214.2,288.8c0,1.1-0.9,2-2,2H12.9c-1.1,0-2-0.9-2-2v-194c0-1.1,0.8-2.4,1.8-2.9l96.3-47
				c1-0.5,2.6-0.5,3.6,0l99.8,47c1,0.5,1.8,1.7,1.8,2.8V288.8z"/>
		</g>
		<g>
			<path fill="#5F747D" d="M0,87.2c0,1.1,0.8,1.6,1.8,1.1l107-53c1-0.5,2.6-0.5,3.6,0l111,53c1,0.5,1.8,0,1.8-1.1v-30
				c0-1.1-0.8-2.4-1.8-2.9l-111-53c-1-0.5-2.6-0.5-3.6,0l-107,53c-1,0.5-1.8,1.8-1.8,2.9V87.2z"/>
		</g>
		<g>
			<g>
				<path fill="#FFFFFF" d="M74.4,95.3l-7.7,18.6h17.1L60.4,145l7.8-23.3H52.7l10.9-26.4H74.4z"/>
				<path fill="#FFFFFF" d="M155.2,143.4c1.2-1.5,2.1-3,2.8-4.6c0.7-1.6,1.1-3.1,1.2-4.5c0.2-1.4,0.2-2.9,0-4.3
					c-0.1-1.4-0.4-2.7-0.8-4c-0.4-1.2-0.9-2.4-1.4-3.5c-0.5-1.1-1.1-2.1-1.6-2.9c-0.6-0.8-1.1-1.6-1.6-2.2c-0.5-0.6-0.9-1.1-1.2-1.4
					l-0.5-0.5c-0.2,0.2-0.4,0.4-0.8,0.8c-0.3,0.3-0.9,1.1-1.7,2.3c-0.8,1.2-1.6,2.3-2.2,3.5c-0.6,1.2-1.2,2.7-1.7,4.5
					c-0.5,1.8-0.8,3.5-0.9,5.3c0,1.7,0.3,3.6,0.9,5.7c0.7,2.1,1.7,4,3.2,6c-2.1-0.7-3.9-1.6-5.6-2.6c-1.6-1-3.1-2.3-4.4-3.9
					c-1.3-1.6-2.3-3.5-3-5.8c-0.7-2.3-1-4.9-1-7.9c0-1.8,0.3-3.6,0.8-5.3c0.5-1.7,1.2-3.2,2-4.5s1.7-2.5,2.7-3.7c1-1.2,2-2.4,3-3.5
					c1-1.2,1.9-2.4,2.7-3.6c0.8-1.2,1.5-2.6,2-4.1c0.5-1.5,0.8-3.1,0.8-4.8c1.9,1,3.8,2.1,5.7,3.5c1.8,1.4,3.7,3,5.4,4.9
					c1.8,1.9,3.3,3.9,4.6,6c1.3,2.1,2.4,4.5,3.2,7.1c0.8,2.6,1.2,5.3,1.2,8c0,5.5-1.2,10-3.7,13.5
					C163,140.1,159.5,142.4,155.2,143.4z"/>
			</g>
		</g>
		<g>
			<g>
				<path fill="#FFFFFF" d="M94.3,259.2h-1.5c-2.4,0-4.3-0.7-5.7-2.1c-1.4-1.4-2.1-3.3-2.1-5.7v-29.6c0-0.9-0.5-1.4-1.5-1.4
					c-1,0-1.5,0.5-1.5,1.4v29.6c0,2.2-0.7,4-2.2,5.5c-1.5,1.5-3.3,2.2-5.5,2.2c-2.2,0-4.1-0.7-5.5-2.2c-1.5-1.5-2.2-3.3-2.2-5.5
					v-29.6c0-0.5-0.1-0.8-0.4-1c-0.3-0.2-0.7-0.4-1.1-0.4c-1.1,0-1.6,0.5-1.6,1.4v29.6c0,2.2-0.7,4-2.2,5.5
					c-1.5,1.5-3.3,2.2-5.5,2.2c-2,0-3.8-0.6-5.2-1.9c-1.7-1.5-2.5-3.4-2.5-5.8v-29.5c0-0.7-0.1-1.1-0.3-1.3
					c-0.2-0.2-0.6-0.2-1.3-0.2h-1.5v-6.2h1.5c2.4,0,4.3,0.7,5.7,2.1c1.4,1.4,2.1,3.3,2.1,5.7v29.5c0,0.9,0.5,1.4,1.5,1.4
					c1,0,1.5-0.5,1.5-1.4v-29.6c0-2.2,0.7-4,2.2-5.5c1.5-1.5,3.3-2.2,5.6-2.2c2.2,0,4.1,0.7,5.5,2.2c1.5,1.5,2.2,3.3,2.2,5.5v29.6
					c0,1,0.5,1.5,1.6,1.5s1.6-0.5,1.6-1.5v-29.6c0-2.2,0.7-4,2.2-5.5c1.5-1.5,3.3-2.2,5.5-2.2s4.1,0.7,5.6,2.2
					c1.5,1.5,2.2,3.3,2.2,5.5v29.6c0,0.7,0.1,1.1,0.3,1.3c0.2,0.2,0.6,0.2,1.3,0.2h1.5V259.2z"/>
				<path fill="#FFFFFF" d="M153.4,260.7c-3.5,0-6.6-0.8-9.5-2.5c-2.9-1.6-5.1-3.9-6.8-6.7c-1.7-2.9-2.5-6-2.5-9.4
					c0-1.8,0.2-3.6,0.6-5.4c0.4-1.8,0.9-3.4,1.4-4.9c0.6-1.5,1.3-3,2.2-4.6c0.9-1.6,1.7-2.9,2.5-4c0.7-1.1,1.7-2.3,2.8-3.5
					c1.1-1.3,2-2.2,2.5-2.8s1.4-1.4,2.3-2.2c0.9-0.8,1.5-1.3,1.6-1.4c0.1-0.1,0.4-0.3,0.8-0.7l2-1.6l2,1.6c0,0,0.1,0,0.1,0
					c0.5,0.4,1,0.8,1.4,1.2c0.5,0.4,1.3,1.2,2.5,2.3c1.2,1.2,2.3,2.3,3.3,3.5c1,1.2,2.1,2.6,3.3,4.4c1.2,1.8,2.2,3.5,3.1,5.3
					c0.8,1.8,1.5,3.8,2.1,6c0.6,2.2,0.9,4.4,0.9,6.6c0,3.4-0.8,6.6-2.5,9.4s-3.9,5.1-6.7,6.7C159.9,259.9,156.8,260.7,153.4,260.7z
					 M153.3,219.3c-1.1,1-2,2-2.8,2.9c-0.8,0.9-1.9,2.1-3.2,3.8c-1.3,1.6-2.4,3.2-3.2,4.8c-0.8,1.5-1.6,3.3-2.2,5.4
					c-0.6,2-1,4.1-1,6.1c0,3.5,1.2,6.4,3.6,8.8c2.4,2.4,5.4,3.6,8.9,3.6c3.5,0,6.4-1.2,8.8-3.6c2.3-2.4,3.5-5.3,3.5-8.8
					c0-1.5-0.2-2.9-0.5-4.4c-0.3-1.5-0.8-2.8-1.3-4c-0.5-1.2-1.1-2.5-1.9-3.8c-0.8-1.3-1.5-2.4-2.2-3.3c-0.7-0.9-1.5-1.9-2.4-3
					c-0.9-1.1-1.7-1.9-2.2-2.4C154.7,220.6,154,220,153.3,219.3z"/>
			</g>
		</g>
		<g>
			<path fill="none" stroke="#14C400" stroke-width="3.2968" stroke-miterlimit="10" d="M66.8,159.3v10.1c0,3.6,3,6.6,6.6,6.6h152.9
				c3.6,0,8.8,2,11.5,4.4l43.9,39c2.7,2.4,7.9,4.4,11.5,4.4h22.9"/>
		</g>
		<g>
			<path fill="none" stroke="#14C400" stroke-width="3.2968" stroke-miterlimit="10" d="M151.2,159.3c0,0,0,2.3,0,5.1
				c0,2.8,3,5.1,6.6,5.1h71.8c3.6,0,8.8,2,11.5,4.4l43.9,38.6c2.7,2.4,7.9,4.4,11.5,4.4h19.6"/>
		</g>
		<g>
			<path fill="none" stroke="#14C400" stroke-width="3.2968" stroke-miterlimit="10" d="M66.8,197.4v-8.3c0-3.6,3-6.6,6.6-6.6h149.5
				c3.6,0,8.8,2,11.5,4.4l44,39.4c2.7,2.4,7.9,4.4,11.5,4.4h26.3"/>
		</g>
		<g>
			<path fill="none" stroke="#14C400" stroke-width="3.2968" stroke-miterlimit="10" d="M151.2,197.4c0,0,0-1.9,0-4.2
				c0-2.3,3-4.2,6.6-4.2h61.8c3.6,0,8.8,2,11.5,4.4l44,39.9c2.7,2.4,7.9,4.4,11.5,4.4h29.6"/>
		</g>
		<g>
			<g>
				<path fill="#5F747D" d="M431.4,286.8c0,2.2-1.8,4-4,4H307.5c-2.2,0-4-1.8-4-4V166.9c0-2.2,1.8-4,4-4h119.9c2.2,0,4,1.8,4,4
					V286.8z"/>
			</g>
			<g>
				<g>
					<path fill="#FFFFFF" d="M331.7,207v26.8c0,2.5,0.3,4.6,0.9,6.4c0.6,1.8,1.4,3.2,2.5,4.3c1.1,1.1,2.4,1.9,4,2.4
						c1.6,0.5,3.4,0.8,5.3,0.8c2,0,3.8-0.3,5.4-0.8c1.6-0.5,2.9-1.3,4-2.4c1.1-1.1,1.9-2.6,2.5-4.3c0.6-1.8,0.9-3.9,0.9-6.4V207h4.1
						v27.8c0,2.2-0.3,4.3-0.9,6.3c-0.6,2-1.6,3.8-3,5.3c-1.4,1.5-3.1,2.7-5.2,3.6c-2.1,0.9-4.7,1.3-7.7,1.3c-3,0-5.6-0.4-7.7-1.3
						c-2.1-0.9-3.9-2.1-5.2-3.6c-1.4-1.5-2.3-3.2-3-5.3c-0.6-2-0.9-4.1-0.9-6.3V207H331.7z"/>
					<path fill="#FFFFFF" d="M401.3,215.6c-0.8-1.3-1.8-2.4-3-3.3c-1.2-0.9-2.5-1.6-3.9-2c-1.4-0.5-2.9-0.7-4.5-0.7
						c-2.9,0-5.3,0.5-7.4,1.6c-2.1,1.1-3.8,2.5-5.1,4.3c-1.3,1.8-2.3,3.8-2.9,6.1c-0.6,2.3-0.9,4.6-0.9,7c0,2.3,0.3,4.7,0.9,7
						c0.6,2.3,1.6,4.3,2.9,6.1c1.3,1.8,3,3.2,5.1,4.3c2.1,1.1,4.5,1.6,7.4,1.6c2,0,3.8-0.4,5.5-1.1c1.6-0.7,3-1.7,4.2-3
						c1.2-1.3,2.1-2.7,2.9-4.4c0.7-1.7,1.2-3.5,1.4-5.4h4.1c-0.3,2.7-0.9,5.1-1.9,7.2c-1,2.1-2.2,4-3.8,5.5
						c-1.5,1.5-3.4,2.7-5.4,3.5c-2.1,0.8-4.4,1.2-7,1.2c-3.4,0-6.4-0.6-9-1.9c-2.6-1.2-4.7-2.9-6.4-5c-1.7-2.1-3-4.5-3.8-7.2
						c-0.9-2.7-1.3-5.6-1.3-8.6c0-3,0.4-5.9,1.3-8.6c0.9-2.7,2.1-5.1,3.8-7.2c1.7-2.1,3.8-3.7,6.4-5c2.6-1.2,5.6-1.9,9-1.9
						c2.1,0,4.1,0.3,6,0.9c2,0.6,3.7,1.5,5.3,2.7c1.6,1.2,2.9,2.7,4,4.4c1.1,1.7,1.8,3.7,2,6h-4.1
						C402.8,218.4,402.2,217,401.3,215.6z"/>
				</g>
			</g>
		</g>
		<g>
			<g>
				<g>
					<path fill="#5F747D" d="M644.3,53.4c0.6-2.3,1-4.8,1-7.3c0-15.8-12.8-28.6-28.6-28.6c-7.4,0-14.1,2.8-19.2,7.5
						C591.4,10.3,577.1,0,560.3,0C538,0,520,18,520,40.2c0,4.2,0.6,8.2,1.8,12c-15.6,3-27.4,16.8-27.4,33.3
						c0,18.7,15.2,33.9,33.9,33.9c18.7,0,86.6,0,105.3,0c18.7,0,33.9-15.2,33.9-33.9C667.5,70.5,657.8,57.8,644.3,53.4z"/>
				</g>
			</g>
			<g>
				<g>
					<path fill="#FFFFFF" d="M546.4,48.7v26.8c0,2.5,0.3,4.6,0.9,6.4c0.6,1.8,1.4,3.2,2.5,4.3c1.1,1.1,2.4,1.9,4,2.4
						c1.6,0.5,3.4,0.8,5.3,0.8c2,0,3.8-0.3,5.4-0.8c1.6-0.5,2.9-1.3,4-2.4c1.1-1.1,1.9-2.6,2.5-4.3c0.6-1.8,0.9-3.9,0.9-6.4V48.7
						h4.1v27.8c0,2.2-0.3,4.3-0.9,6.3c-0.6,2-1.6,3.8-3,5.3c-1.4,1.5-3.1,2.7-5.2,3.6c-2.1,0.9-4.7,1.3-7.7,1.3
						c-3,0-5.6-0.4-7.7-1.3c-2.1-0.9-3.9-2.1-5.2-3.6c-1.4-1.5-2.3-3.2-3-5.3c-0.6-2-0.9-4.1-0.9-6.3V48.7H546.4z"/>
					<path fill="#FFFFFF" d="M616.1,57.3c-0.8-1.3-1.8-2.4-3-3.3c-1.2-0.9-2.5-1.6-3.9-2c-1.4-0.5-2.9-0.7-4.5-0.7
						c-2.9,0-5.3,0.5-7.4,1.6c-2.1,1.1-3.8,2.5-5.1,4.3s-2.3,3.8-2.9,6.1c-0.6,2.3-0.9,4.6-0.9,7c0,2.3,0.3,4.7,0.9,7
						c0.6,2.3,1.6,4.3,2.9,6.1c1.3,1.8,3,3.2,5.1,4.3c2.1,1.1,4.5,1.6,7.4,1.6c2,0,3.8-0.4,5.5-1.1c1.6-0.7,3-1.7,4.2-3
						c1.2-1.3,2.1-2.7,2.9-4.4c0.7-1.7,1.2-3.5,1.4-5.4h4.1c-0.3,2.7-0.9,5.1-1.9,7.2c-1,2.1-2.2,4-3.8,5.5s-3.4,2.7-5.4,3.5
						c-2.1,0.8-4.4,1.2-7,1.2c-3.4,0-6.4-0.6-9-1.9c-2.6-1.2-4.7-2.9-6.4-5c-1.7-2.1-3-4.5-3.8-7.2c-0.9-2.7-1.3-5.6-1.3-8.6
						c0-3,0.4-5.9,1.3-8.6c0.9-2.7,2.1-5.1,3.8-7.2c1.7-2.1,3.8-3.7,6.4-5c2.6-1.2,5.6-1.9,9-1.9c2.1,0,4.1,0.3,6,0.9
						c2,0.6,3.7,1.5,5.3,2.7s2.9,2.7,4,4.4c1.1,1.7,1.8,3.7,2,6h-4.1C617.5,60.1,616.9,58.6,616.1,57.3z"/>
				</g>
			</g>
		</g>
		<g>
			<g>
				<polygon fill="#5F747D" points="817.8,284.5 817.8,264.7 770.9,264.7 770.9,284.5 745.8,284.5 745.8,290.8 842.9,290.8 
					842.9,284.5 				"/>
			</g>
			<g>
				<g>
					<path fill="#5F747D" d="M863.1,156.8H725.5c-2.9,0-5.3,2.3-5.3,5.1v94.5c0,2.8,2.4,5.1,5.3,5.1h137.6c2.9,0,5.3-2.3,5.3-5.1
						v-94.5C868.5,159.1,866.1,156.8,863.1,156.8z"/>
				</g>
				<rect x="730.4" y="166.8" fill="#FFFFFF" width="127.9" height="77"/>
			</g>
			<g>
				<g>
					<path fill="#5F747D" d="M709.7,292.3c-3.4,0-6.1-2.7-6.1-5.9v-81.7c0-3.3,2.7-5.9,6.1-5.9h66.6c3.4,0,6.1,2.7,6.1,5.9v81.7
						c0,3.3-2.7,5.9-6.1,5.9H709.7z"/>
					<g>
						<path fill="#FFFFFF" d="M776.2,200.3c2.5,0,4.6,2,4.6,4.4v81.7c0,2.4-2.1,4.4-4.6,4.4h-66.6c-2.5,0-4.6-2-4.6-4.4v-81.7
							c0-2.4,2.1-4.4,4.6-4.4H776.2 M776.2,197.3h-66.6c-4.2,0-7.6,3.3-7.6,7.4v81.7c0,4.1,3.4,7.4,7.6,7.4h66.6
							c4.2,0,7.7-3.3,7.7-7.4v-81.7C783.9,200.6,780.5,197.3,776.2,197.3L776.2,197.3z"/>
					</g>
				</g>
				<ellipse fill="#FFFFFF" cx="742.8" cy="282.7" rx="3.6" ry="3.4"/>
				<rect x="713.7" y="208.9" fill="#FFFFFF" width="58.6" height="66.7"/>
			</g>
			<g>
				<g>
					<path fill="#5F747D" d="M696.8,292.3c-3.4,0-6.1-2.7-6.1-5.9v-48.3c0-3.3,2.7-5.9,6.1-5.9h27.5c3.4,0,6.1,2.7,6.1,5.9v48.3
						c0,3.3-2.7,5.9-6.1,5.9H696.8z"/>
					<g>
						<path fill="#FFFFFF" d="M724.3,233.7c2.5,0,4.6,2,4.6,4.4v48.3c0,2.4-2.1,4.4-4.6,4.4h-27.5c-2.5,0-4.6-2-4.6-4.4v-48.3
							c0-2.4,2.1-4.4,4.6-4.4H724.3 M724.3,230.6h-27.5c-4.2,0-7.6,3.3-7.6,7.4v48.3c0,4.1,3.4,7.4,7.6,7.4h27.5
							c4.2,0,7.7-3.3,7.7-7.4v-48.3C732,234,728.6,230.6,724.3,230.6L724.3,230.6z"/>
					</g>
				</g>
				<path fill="#FFFFFF" d="M710.4,286.1c-2,0-3.6-1.5-3.6-3.4c0-1.9,1.6-3.4,3.6-3.4c2,0,3.6,1.5,3.6,3.4
					C714,284.5,712.4,286.1,710.4,286.1z"/>
				<rect x="699.4" y="241.2" fill="#FFFFFF" width="22.3" height="34.4"/>
			</g>
		</g>
		<g>
			<g>
				<g>
					<path fill="#5F747D" d="M1078.4,29.9c0,16.3-13.2,29.5-29.5,29.5c-16.3,0-29.5-13.2-29.5-29.5c0-16.3,13.2-29.5,29.5-29.5
						C1065.2,0.4,1078.4,13.6,1078.4,29.9z"/>
					<path fill="#5F747D" d="M1089,69c-5.7,0-13.1,0-22.1,0l-18,24.3l-18-24.3c-9,0-16.4,0-22.1,0c-5.7,0-14.7,7.4-14.7,17.2
						c0,9.8,0,84.1,0,84.1h109.7c0,0,0-74.2,0-84.1C1103.8,76.3,1094.8,69,1089,69z"/>
				</g>
			</g>
			<g>
				<path fill="#FFFFFF" d="M1029.3,116.3h-24.4c-1.7,0-3.2,1.4-3.2,3.2v39.8c0,1.7,1.4,3.2,3.2,3.2h24.4c1.7,0,3.2-1.4,3.2-3.2
					v-39.8C1032.5,117.7,1031.1,116.3,1029.3,116.3z M1017,158.7c-1.5,0-2.7-1.2-2.7-2.7c0-1.5,1.2-2.7,2.7-2.7
					c1.5,0,2.7,1.2,2.7,2.7C1019.7,157.5,1018.5,158.7,1017,158.7z M1027.9,150.6h-21.6V121h21.6V150.6z"/>
				<g>
					<path fill="none" stroke="#FFFFFF" stroke-width="1.9358" stroke-miterlimit="10" d="M1029.6,111.6c4.4,0,8,3.6,8,8"/>
					<path fill="none" stroke="#FFFFFF" stroke-width="1.9358" stroke-miterlimit="10" d="M1029.6,105.8c7.6,0,13.8,6.2,13.8,13.8"
						/>
					<path fill="none" stroke="#FFFFFF" stroke-width="1.9358" stroke-miterlimit="10" d="M1029.6,99.8c10.9,0,19.8,8.9,19.8,19.8"
						/>
				</g>
			</g>
		</g>
		<g>
			<g>
				<g>
					<path fill="none" stroke="#14C400" stroke-width="3.2968" stroke-miterlimit="10" d="M482.7,58.1l-109.5,0
						c-3.6,0-6.6,3-6.6,6.6v90.8"/>
				</g>
				<polyline fill="none" stroke="#14C400" stroke-width="3.2968" stroke-miterlimit="10" points="465.2,39.3 484,58.1 465.2,76.9 
									"/>
			</g>
		</g>
		<g>
			<g>
				<g>
					<path fill="none" stroke="#14C400" stroke-width="3.2968" stroke-miterlimit="10" d="M788.9,145.4l0-80.7c0-3.6-3-6.6-6.6-6.6
						H673.8"/>
				</g>
				<polyline fill="none" stroke="#14C400" stroke-width="3.2968" stroke-miterlimit="10" points="807.7,127.9 788.9,146.7 
					770,127.9 				"/>
			</g>
		</g>
		<g>
			<g>
				<line fill="none" stroke="#14C400" stroke-width="3.2968" stroke-miterlimit="10" x1="883.1" y1="206.8" x2="976.9" y2="113"/>
				<polyline fill="none" stroke="#14C400" stroke-width="3.2968" stroke-miterlimit="10" points="951.3,112.1 977.9,112.1 
					977.9,138.7 				"/>
				<polyline fill="none" stroke="#14C400" stroke-width="3.2968" stroke-miterlimit="10" points="909.1,207.6 882.4,207.6 
					882.4,180.9 				"/>
			</g>
		</g>
		<g>
			<g>
				<path fill="#666666" d="M9.1,307.4h6.6c2.6,0,5,0.9,5,3.8c0,1.6-1.1,3.2-2.7,3.5v0c2,0.3,3.3,1.8,3.3,3.8c0,1.5-0.5,4.4-5.6,4.4
					H9.1V307.4z M15.7,314.3c2.4,0,3.5-1.2,3.5-2.7c0-2-1.2-2.9-3.5-2.9h-5.1v5.6H15.7z M15.7,321.8c2.2,0,4.1-0.7,4.1-3.2
					c0-2-1.5-3-4.1-3h-5.1v6.2H15.7z"/>
				<path fill="#666666" d="M37.6,323.1v-10.1H33l-0.2,6.4c-0.1,3.1-1.2,4.1-2.9,4.1c-0.4,0-0.9-0.1-1.2-0.2V322
					c0.4,0.2,0.7,0.2,1.1,0.2c1,0,1.5-0.5,1.6-3l0.2-7.4H39v11.3H37.6z"/>
				<path fill="#666666" d="M56.4,317.4c0,3.2-1.9,6-5.3,6c-3.3,0-5.2-2.5-5.3-5.7h-2.5v5.3h-1.4v-11.3h1.4v4.8h2.6
					c0.3-2.9,2.1-5.1,5.3-5.1C54.5,311.4,56.4,314.2,56.4,317.4z M47.1,317.4c0,2.4,1.3,4.8,4,4.8s4-2.4,4-4.8s-1.3-4.8-4-4.8
					S47.1,315,47.1,317.4z"/>
				<path fill="#666666" d="M63.5,323.4c-3.4,0-5.2-2.5-5.2-6.5c0-5.4,1.4-8.2,5.4-8.6l1.7-0.2c1.2-0.1,1.5-0.3,1.6-0.7h1.5
					c-0.3,1.3-0.9,1.8-2.8,2l-1.7,0.2c-2.5,0.2-3.9,1.4-4.4,4.9h0.1c0.8-1.6,2.3-2.5,4.2-2.5c2.9,0,5,2.3,5,5.7
					C68.8,321.1,66.7,323.4,63.5,323.4z M63.7,313.1c-2.3,0-4,1.7-4,4.5c0,2.7,1.6,4.6,3.9,4.6c2.2,0,3.8-1.7,3.8-4.6
					C67.4,314.9,65.8,313.1,63.7,313.1z"/>
				<path fill="#666666" d="M71.1,323.1v-11.3h1.4v4.5h3.7c2.2,0,3.6,1.3,3.6,3.4c0,2.1-1.4,3.4-3.6,3.4H71.1z M72.4,317.4v4.5h3.4
					c1.6,0,2.5-0.8,2.5-2.3c0-1.4-0.9-2.3-2.5-2.3H72.4z M81.8,311.8h1.4v11.3h-1.4V311.8z"/>
				<path fill="#666666" d="M86.8,317.8c0,2,1.1,4.4,3.7,4.4c2,0,3.1-1.2,3.5-2.9h1.4c-0.6,2.6-2.1,4.1-4.9,4.1
					c-3.6,0-5.1-2.8-5.1-6c0-3,1.5-6,5.1-6c3.6,0,5.1,3.2,5,6.4H86.8z M94.1,316.6c-0.1-2.1-1.4-4-3.6-4c-2.3,0-3.5,2-3.7,4H94.1z"
					/>
				<path fill="#666666" d="M102.6,311.8h1.5l3.7,9.6l3.5-9.6h1.4l-4.9,13c-0.8,1.9-1.2,2.5-3,2.5c-0.5,0-0.8,0-1.1-0.1V326
					c0.3,0.1,0.6,0.1,0.9,0.1c1.2,0,1.5-0.7,2-1.8l0.5-1.3L102.6,311.8z"/>
				<path fill="#666666" d="M121.9,315.3c-0.4-1.7-1.4-2.7-3.2-2.7c-2.6,0-4,2.4-4,4.8s1.3,4.8,4,4.8c1.7,0,3.1-1.4,3.3-3.2h1.4
					c-0.4,2.7-2.1,4.4-4.7,4.4c-3.4,0-5.3-2.7-5.3-6s1.9-6,5.3-6c2.4,0,4.3,1.3,4.6,3.9H121.9z"/>
				<path fill="#666666" d="M129.8,312.9v10.1h-1.4v-10.1h-4.2v-1.2h9.8v1.2H129.8z"/>
				<path fill="#666666" d="M135.5,311.8h1.3v2.1h0c0.6-1.6,2.2-2.5,4-2.5c3.4,0,5.1,2.8,5.1,6s-1.6,6-5.1,6c-1.7,0-3.3-0.8-3.9-2.5
					h0v6.3h-1.4V311.8z M140.9,312.6c-3.1,0-4,2.3-4,4.8c0,2.3,1.1,4.8,4,4.8c2.6,0,3.7-2.5,3.7-4.8S143.5,312.6,140.9,312.6z"/>
				<path fill="#666666" d="M158.4,317.4c0,3.2-1.9,6-5.3,6c-3.4,0-5.3-2.7-5.3-6s1.9-6,5.3-6C156.5,311.4,158.4,314.2,158.4,317.4z
					 M149.1,317.4c0,2.4,1.3,4.8,4,4.8s4-2.4,4-4.8s-1.3-4.8-4-4.8S149.1,315,149.1,317.4z"/>
				<path fill="#666666" d="M168.5,323.1v-9.7l-6.1,9.7h-1.7v-11.3h1.4v9.7l6.1-9.7h1.7v11.3H168.5z M163.2,307.2
					c0.1,1.2,1.2,1.8,2.3,1.8c1.1,0,2.1-0.7,2.3-1.8h0.9c-0.2,1.7-1.4,2.8-3.2,2.8c-1.8,0-3-1-3.1-2.8H163.2z"/>
				<path fill="#666666" d="M180.7,315.3c-0.4-1.7-1.4-2.7-3.2-2.7c-2.6,0-4,2.4-4,4.8s1.3,4.8,4,4.8c1.7,0,3.1-1.4,3.3-3.2h1.4
					c-0.4,2.7-2.1,4.4-4.7,4.4c-3.4,0-5.3-2.7-5.3-6s1.9-6,5.3-6c2.4,0,4.3,1.3,4.6,3.9H180.7z"/>
				<path fill="#666666" d="M188.5,312.9v10.1h-1.4v-10.1H183v-1.2h9.8v1.2H188.5z"/>
				<path fill="#666666" d="M199.5,323.1h-5.3v-11.3h5.3c2.3,0,3.5,1.1,3.5,2.8c0,1.3-0.8,2.1-1.9,2.4v0c1.5,0.3,2.4,1.2,2.4,2.8
					C203.6,321.9,202.1,323.1,199.5,323.1z M199.4,312.9h-3.8v3.7h3.8c1.6,0,2.4-0.7,2.4-1.8C201.8,313.5,201,312.9,199.4,312.9z
					 M199.4,317.7h-3.8v4.2h3.8c1.9,0,2.8-0.7,2.8-2.1C202.2,318.5,201.3,317.7,199.4,317.7z"/>
				<path fill="#666666" d="M205.7,315.2c0.2-2.7,2-3.8,4.6-3.8c2,0,4.2,0.6,4.2,3.6v6c0,0.5,0.3,0.8,0.8,0.8c0.2,0,0.3,0,0.4-0.1
					v1.2c-0.3,0.1-0.5,0.1-0.9,0.1c-1.4,0-1.6-0.8-1.6-2h0c-1,1.5-1.9,2.3-4.1,2.3c-2.1,0-3.8-1-3.8-3.3c0-3.2,3.1-3.3,6.1-3.6
					c1.1-0.1,1.8-0.3,1.8-1.5c0-1.9-1.3-2.3-3-2.3c-1.7,0-3,0.8-3,2.6H205.7z M213.1,316.9L213.1,316.9c-0.2,0.3-0.8,0.4-1.2,0.5
					c-2.3,0.4-5.3,0.4-5.3,2.6c0,1.4,1.2,2.2,2.5,2.2c2.1,0,3.9-1.3,3.9-3.5V316.9z"/>
				<path fill="#666666" d="M15.3,349.3V340h-0.1l-4,9.3h-1.2l-4-9.3H6.1v9.3H4.7V338h1.8l4.2,9.8l4.2-9.8h1.8v11.3H15.3z"/>
				<path fill="#666666" d="M29.7,343.7c0,3.2-1.9,6-5.3,6c-3.4,0-5.3-2.7-5.3-6s1.9-6,5.3-6C27.8,337.7,29.7,340.4,29.7,343.7z
					 M20.4,343.7c0,2.4,1.3,4.8,4,4.8s4-2.4,4-4.8s-1.3-4.8-4-4.8S20.4,341.3,20.4,343.7z"/>
				<path fill="#666666" d="M39.7,349.3V344h-6.4v5.3h-1.4V338h1.4v4.8h6.4V338h1.4v11.3H39.7z"/>
				<path fill="#666666" d="M48.2,339.2v10.1h-1.4v-10.1h-4.2V338h9.8v1.2H48.2z"/>
				<path fill="#666666" d="M61.7,349.3v-9.7l-6.1,9.7h-1.7V338h1.4v9.7l6.1-9.7h1.7v11.3H61.7z"/>
				<path fill="#666666" d="M65.9,338h1.3v2.1h0c0.6-1.6,2.2-2.5,4-2.5c3.4,0,5.1,2.8,5.1,6s-1.6,6-5.1,6c-1.7,0-3.3-0.8-3.9-2.5h0
					v6.3h-1.4V338z M71.2,338.9c-3.1,0-4,2.3-4,4.8c0,2.3,1.1,4.8,4,4.8c2.6,0,3.7-2.5,3.7-4.8S73.9,338.9,71.2,338.9z"/>
				<path fill="#666666" d="M77.1,338h1.5l3.7,9.6l3.5-9.6h1.4l-4.9,13c-0.8,1.9-1.2,2.5-3,2.5c-0.5,0-0.8,0-1.1-0.1v-1.2
					c0.3,0.1,0.6,0.1,0.9,0.1c1.2,0,1.5-0.7,2-1.8l0.5-1.3L77.1,338z"/>
				<path fill="#666666" d="M103.3,343.7c0,3.2-1.9,6-5.3,6c-3.3,0-5.2-2.5-5.3-5.7h-2.5v5.3h-1.4V338h1.4v4.8h2.6
					c0.3-2.9,2.1-5.1,5.3-5.1C101.4,337.7,103.3,340.4,103.3,343.7z M94,343.7c0,2.4,1.3,4.8,4,4.8s4-2.4,4-4.8s-1.3-4.8-4-4.8
					S94,341.3,94,343.7z"/>
				<path fill="#666666" d="M109.5,339.2v10.1h-1.4v-10.1h-4.2V338h9.8v1.2H109.5z"/>
				<path fill="#666666" d="M122.8,341.6c-0.4-1.7-1.4-2.7-3.2-2.7c-2.6,0-4,2.4-4,4.8s1.3,4.8,4,4.8c1.7,0,3.1-1.4,3.3-3.2h1.4
					c-0.4,2.7-2.1,4.4-4.7,4.4c-3.4,0-5.3-2.7-5.3-6s1.9-6,5.3-6c2.4,0,4.3,1.3,4.6,3.9H122.8z"/>
				<path fill="#666666" d="M133.7,349.3v-4.8h-2.9l-3.9,4.8h-1.8l4.1-4.8c-2-0.1-3.3-1.2-3.3-3.2c0-2,1.4-3.3,3.5-3.3h5.6v11.3
					H133.7z M129.7,339.2c-1.5,0-2.3,0.8-2.3,2.1c0,1.3,0.8,2.1,2.4,2.1h3.9v-4.2H129.7z"/>
				<path fill="#666666" d="M152.1,349.3V344h-6.4v5.3h-1.4V338h1.4v4.8h6.4V338h1.4v11.3H152.1z"/>
				<path fill="#666666" d="M155,338h1.5l3.7,9.6l3.5-9.6h1.4l-4.9,13c-0.8,1.9-1.2,2.5-3,2.5c-0.5,0-0.8,0-1.1-0.1v-1.2
					c0.3,0.1,0.6,0.1,0.9,0.1c1.2,0,1.5-0.7,2-1.8l0.5-1.3L155,338z"/>
				<path fill="#666666" d="M174.1,338v5.7l5.3-5.7h1.8l-4.4,4.7l4.9,6.6h-1.7l-4.1-5.7l-1.7,1.8v4h-1.4v-3.9l-1.7-1.8l-4.1,5.7
					h-1.7l4.9-6.6l-4.4-4.7h1.8l5.2,5.7V338H174.1z"/>
				<path fill="#666666" d="M190.9,349.3V344h-6.4v5.3h-1.4V338h1.4v4.8h6.4V338h1.4v11.3H190.9z"/>
				<path fill="#666666" d="M195,349.3V338h1.4v4.5h3.7c2.2,0,3.6,1.3,3.6,3.4c0,2.1-1.4,3.4-3.6,3.4H195z M196.4,343.7v4.5h3.4
					c1.6,0,2.5-0.8,2.5-2.3c0-1.4-0.9-2.3-2.5-2.3H196.4z M205.8,338h1.4v11.3h-1.4V338z"/>
				<path fill="#666666" d="M210.8,344.1c0,2,1.1,4.4,3.7,4.4c2,0,3.1-1.2,3.5-2.9h1.4c-0.6,2.6-2.1,4.1-4.9,4.1
					c-3.6,0-5.1-2.8-5.1-6c0-3,1.5-6,5.1-6c3.6,0,5.1,3.2,5,6.4H210.8z M218.1,342.9c-0.1-2.1-1.4-4-3.6-4c-2.3,0-3.5,2-3.7,4H218.1
					z"/>
				<path fill="#666666" d="M23.4,367.9c-0.4-1.7-1.4-2.7-3.2-2.7c-2.6,0-4,2.4-4,4.8s1.3,4.8,4,4.8c1.7,0,3.1-1.4,3.3-3.2h1.4
					c-0.4,2.7-2.1,4.4-4.7,4.4c-3.4,0-5.3-2.7-5.3-6s1.9-6,5.3-6c2.4,0,4.3,1.3,4.6,3.9H23.4z"/>
				<path fill="#666666" d="M30.5,370.9c-2.4,0-3.8-1-3.8-3.6v-3h1.4v2.9c0,1.8,0.8,2.5,2.5,2.5c1.4,0,2.8-0.3,3.6-0.6v-4.8h1.4
					v11.3h-1.4v-5.3C33.3,370.5,31.9,370.9,30.5,370.9z"/>
				<path fill="#666666" d="M39.1,370.4c0,2,1.1,4.4,3.7,4.4c2,0,3.1-1.2,3.5-2.9h1.4c-0.6,2.6-2.1,4.1-4.9,4.1
					c-3.6,0-5.1-2.8-5.1-6c0-3,1.5-6,5.1-6c3.6,0,5.1,3.2,5,6.4H39.1z M46.5,369.2c-0.1-2.1-1.4-4-3.6-4c-2.3,0-3.5,2-3.7,4H46.5z
					 M40.2,362.3v-2.2h1.5v2.2H40.2z M44,362.3v-2.2h1.5v2.2H44z"/>
				<path fill="#666666" d="M53.8,365.5v10.1h-1.4v-10.1h-4.2v-1.2H58v1.2H53.8z"/>
				<path fill="#666666" d="M62.9,370.9c-2.4,0-3.8-1-3.8-3.6v-3h1.4v2.9c0,1.8,0.8,2.5,2.5,2.5c1.4,0,2.8-0.3,3.6-0.6v-4.8h1.4
					v11.3h-1.4v-5.3C65.7,370.5,64.4,370.9,62.9,370.9z"/>
				<path fill="#666666" d="M78.5,375.6v-9.7l-6.1,9.7h-1.7v-11.3h1.4v9.7l6.1-9.7h1.7v11.3H78.5z"/>
				<path fill="#666666" d="M82.8,364.3h1.4v5.7l6.3-5.7h1.8l-4.8,4.3l5.1,7.1h-1.7l-4.4-6.1l-2.3,2.1v4h-1.4V364.3z"/>
				<path fill="#666666" d="M101.7,375.6v-9.7l-6.1,9.7h-1.7v-11.3h1.4v9.7l6.1-9.7h1.7v11.3H101.7z"/>
				<path fill="#666666" d="M120,375.6v-9.7l-6.1,9.7h-1.7v-11.3h1.4v9.7l6.1-9.7h1.7v11.3H120z"/>
				<path fill="#666666" d="M139.8,379.2v-3.6h-9v3.6h-1.4v-4.8h1.3c1.1-2,1.6-4.6,1.6-8.3v-1.8h7.4v10.1h1.6v4.8H139.8z
					 M138.2,365.5h-4.6v0.7c0,3.7-0.5,6.2-1.5,8.2h6.1V365.5z"/>
				<path fill="#666666" d="M142.7,367.8c0.2-2.7,2-3.8,4.6-3.8c2,0,4.2,0.6,4.2,3.6v6c0,0.5,0.3,0.8,0.8,0.8c0.2,0,0.3,0,0.4-0.1
					v1.2c-0.3,0.1-0.5,0.1-0.9,0.1c-1.4,0-1.6-0.8-1.6-2h0c-1,1.5-1.9,2.3-4.1,2.3c-2.1,0-3.8-1-3.8-3.3c0-3.2,3.1-3.3,6.1-3.6
					c1.1-0.1,1.8-0.3,1.8-1.5c0-1.9-1.3-2.3-3-2.3c-1.7,0-3,0.8-3,2.6H142.7z M150,369.5L150,369.5c-0.2,0.3-0.8,0.4-1.2,0.5
					c-2.3,0.4-5.3,0.4-5.3,2.6c0,1.4,1.2,2.2,2.5,2.2c2.1,0,3.9-1.3,3.9-3.5V369.5z"/>
				<path fill="#666666" d="M158.7,365.5v10.1h-1.4v-10.1h-4.2v-1.2h9.8v1.2H158.7z"/>
				<path fill="#666666" d="M167.8,370.9c-2.4,0-3.8-1-3.8-3.6v-3h1.4v2.9c0,1.8,0.8,2.5,2.5,2.5c1.4,0,2.8-0.3,3.6-0.6v-4.8h1.4
					v11.3h-1.4v-5.3C170.6,370.5,169.2,370.9,167.8,370.9z"/>
				<path fill="#666666" d="M183.4,375.6v-9.7l-6.1,9.7h-1.7v-11.3h1.4v9.7l6.1-9.7h1.7v11.3H183.4z"/>
				<path fill="#666666" d="M187.6,364.3h1.4v5.7l6.3-5.7h1.8l-4.8,4.3l5.1,7.1h-1.7l-4.4-6.1l-2.3,2.1v4h-1.4V364.3z"/>
				<path fill="#666666" d="M206.6,375.6v-9.7l-6.1,9.7h-1.7v-11.3h1.4v9.7l6.1-9.7h1.7v11.3H206.6z"/>
			</g>
		</g>
		<g>
			<g>
				<path fill="#666666" d="M328.2,323.1h-1.5v-14.4h-9.3v14.4h-1.5v-15.6h12.3V323.1z"/>
				<path fill="#666666" d="M341.4,317.4c0,3.2-1.9,6-5.3,6c-3.4,0-5.3-2.7-5.3-6s1.9-6,5.3-6C339.5,311.4,341.4,314.2,341.4,317.4z
					 M332.1,317.4c0,2.4,1.3,4.8,4,4.8s4-2.4,4-4.8s-1.3-4.8-4-4.8S332.1,315,332.1,317.4z"/>
				<path fill="#666666" d="M343.7,311.8h1.4v5.7l6.3-5.7h1.8l-4.8,4.3l5.1,7.1h-1.7l-4.4-6.1l-2.3,2.1v4h-1.4V311.8z"/>
				<path fill="#666666" d="M354.7,315.2c0.2-2.7,2-3.8,4.6-3.8c2,0,4.2,0.6,4.2,3.6v6c0,0.5,0.3,0.8,0.8,0.8c0.2,0,0.3,0,0.4-0.1
					v1.2c-0.3,0.1-0.5,0.1-0.9,0.1c-1.4,0-1.6-0.8-1.6-2h0c-1,1.5-1.9,2.3-4.1,2.3c-2.1,0-3.8-1-3.8-3.3c0-3.2,3.1-3.3,6.1-3.6
					c1.1-0.1,1.8-0.3,1.8-1.5c0-1.9-1.3-2.3-3-2.3c-1.7,0-3,0.8-3,2.6H354.7z M362.1,316.9L362.1,316.9c-0.2,0.3-0.8,0.4-1.2,0.5
					c-2.3,0.4-5.3,0.4-5.3,2.6c0,1.4,1.2,2.2,2.5,2.2c2.1,0,3.9-1.3,3.9-3.5V316.9z"/>
				<path fill="#666666" d="M374.6,314.5c0,1.3-0.8,2.1-1.8,2.5v0c1.2,0.2,2.2,1,2.2,2.7c0,2.1-1.8,3.7-4.5,3.7
					c-3,0-4.5-1.5-4.7-3.9h1.4c0.2,1.6,1.1,2.7,3.3,2.7c2.1,0,3.1-0.9,3.1-2.5c0-1.1-0.7-2-2.4-2h-1.9v-1.1h1.6
					c1.3,0,2.4-0.7,2.4-2.1c0-1.1-0.7-2-2.8-2c-2.1,0-2.9,1.1-3,2.5h-1.4c0.2-2.7,2.2-3.6,4.4-3.6
					C373.2,311.4,374.6,312.8,374.6,314.5z"/>
				<path fill="#666666" d="M377.1,315.2c0.2-2.7,2-3.8,4.6-3.8c2,0,4.2,0.6,4.2,3.6v6c0,0.5,0.3,0.8,0.8,0.8c0.2,0,0.3,0,0.4-0.1
					v1.2c-0.3,0.1-0.5,0.1-0.9,0.1c-1.4,0-1.6-0.8-1.6-2h0c-1,1.5-1.9,2.3-4.1,2.3c-2.1,0-3.8-1-3.8-3.3c0-3.2,3.1-3.3,6.1-3.6
					c1.1-0.1,1.8-0.3,1.8-1.5c0-1.9-1.3-2.3-3-2.3c-1.7,0-3,0.8-3,2.6H377.1z M384.5,316.9L384.5,316.9c-0.2,0.3-0.8,0.4-1.2,0.5
					c-2.3,0.4-5.3,0.4-5.3,2.6c0,1.4,1.2,2.2,2.5,2.2c2.1,0,3.9-1.3,3.9-3.5V316.9z"/>
				<path fill="#666666" d="M396.6,323.1v-5.3h-6.4v5.3h-1.4v-11.3h1.4v4.8h6.4v-4.8h1.4v11.3H396.6z"/>
				<path fill="#666666" d="M408.6,323.1v-9.7l-6.1,9.7h-1.7v-11.3h1.4v9.7l6.1-9.7h1.7v11.3H408.6z"/>
				<path fill="#666666" d="M420.1,323.1v-4.8h-2.9l-3.9,4.8h-1.8l4.1-4.8c-2-0.1-3.3-1.2-3.3-3.2c0-2,1.4-3.3,3.5-3.3h5.6v11.3
					H420.1z M416.1,312.9c-1.5,0-2.3,0.8-2.3,2.1c0,1.3,0.8,2.1,2.4,2.1h3.9v-4.2H416.1z"/>
				<path fill="#666666" d="M257.9,349.3v-10.1h-6.4v10.1h-1.4V338h9.2v11.3H257.9z"/>
				<path fill="#666666" d="M263,344.1c0,2,1.1,4.4,3.7,4.4c2,0,3.1-1.2,3.5-2.9h1.4c-0.6,2.6-2.1,4.1-4.9,4.1c-3.6,0-5.1-2.8-5.1-6
					c0-3,1.5-6,5.1-6c3.6,0,5.1,3.2,5,6.4H263z M270.3,342.9c-0.1-2.1-1.4-4-3.6-4c-2.3,0-3.5,2-3.7,4H270.3z"/>
				<path fill="#666666" d="M273.7,338h1.3v2.1h0c0.6-1.6,2.2-2.5,4-2.5c3.4,0,5.1,2.8,5.1,6s-1.6,6-5.1,6c-1.7,0-3.3-0.8-3.9-2.5h0
					v6.3h-1.4V338z M279.1,338.9c-3.1,0-4,2.3-4,4.8c0,2.3,1.1,4.8,4,4.8c2.6,0,3.7-2.5,3.7-4.8S281.7,338.9,279.1,338.9z"/>
				<path fill="#666666" d="M287.3,344.1c0,2,1.1,4.4,3.7,4.4c2,0,3.1-1.2,3.5-2.9h1.4c-0.6,2.6-2.1,4.1-4.9,4.1
					c-3.6,0-5.1-2.8-5.1-6c0-3,1.5-6,5.1-6c3.6,0,5.1,3.2,5,6.4H287.3z M294.7,342.9c-0.1-2.1-1.4-4-3.6-4c-2.3,0-3.5,2-3.7,4H294.7
					z"/>
				<path fill="#666666" d="M307,352.9v-3.6h-9v3.6h-1.4v-4.8h1.3c1.1-2,1.6-4.6,1.6-8.3V338h7.4v10.1h1.6v4.8H307z M305.4,339.2
					h-4.6v0.7c0,3.7-0.5,6.2-1.5,8.2h6.1V339.2z"/>
				<path fill="#666666" d="M309.9,341.5c0.2-2.7,2-3.8,4.6-3.8c2,0,4.2,0.6,4.2,3.6v6c0,0.5,0.3,0.8,0.8,0.8c0.2,0,0.3,0,0.4-0.1
					v1.2c-0.3,0.1-0.5,0.1-0.9,0.1c-1.4,0-1.6-0.8-1.6-2h0c-1,1.5-1.9,2.3-4.1,2.3c-2.1,0-3.8-1-3.8-3.3c0-3.2,3.1-3.3,6.1-3.6
					c1.1-0.1,1.8-0.3,1.8-1.5c0-1.9-1.3-2.3-3-2.3c-1.7,0-3,0.8-3,2.6H309.9z M317.3,343.2L317.3,343.2c-0.2,0.3-0.8,0.4-1.2,0.5
					c-2.3,0.4-5.3,0.4-5.3,2.6c0,1.4,1.2,2.2,2.5,2.2c2.1,0,3.9-1.3,3.9-3.5V343.2z"/>
				<path fill="#666666" d="M336.2,343.7c0,3.2-1.9,6-5.3,6c-3.3,0-5.2-2.5-5.3-5.7H323v5.3h-1.4V338h1.4v4.8h2.6
					c0.3-2.9,2.1-5.1,5.3-5.1C334.3,337.7,336.2,340.4,336.2,343.7z M326.9,343.7c0,2.4,1.3,4.8,4,4.8s4-2.4,4-4.8s-1.3-4.8-4-4.8
					S326.9,341.3,326.9,343.7z"/>
				<path fill="#666666" d="M342.3,339.2v10.1h-1.4v-10.1h-4.2V338h9.8v1.2H342.3z"/>
				<path fill="#666666" d="M355.6,341.6c-0.4-1.7-1.4-2.7-3.2-2.7c-2.6,0-4,2.4-4,4.8s1.3,4.8,4,4.8c1.7,0,3.1-1.4,3.3-3.2h1.4
					c-0.4,2.7-2.1,4.4-4.7,4.4c-3.4,0-5.3-2.7-5.3-6s1.9-6,5.3-6c2.4,0,4.3,1.3,4.6,3.9H355.6z"/>
				<path fill="#666666" d="M366.6,349.3v-4.8h-2.9l-3.9,4.8H358l4.1-4.8c-2-0.1-3.3-1.2-3.3-3.2c0-2,1.4-3.3,3.5-3.3h5.6v11.3
					H366.6z M362.5,339.2c-1.5,0-2.3,0.8-2.3,2.1c0,1.3,0.8,2.1,2.4,2.1h3.9v-4.2H362.5z"/>
				<path fill="#666666" d="M384.9,349.3V344h-6.4v5.3h-1.4V338h1.4v4.8h6.4V338h1.4v11.3H384.9z"/>
				<path fill="#666666" d="M389,341.5c0.2-2.7,2-3.8,4.6-3.8c2,0,4.2,0.6,4.2,3.6v6c0,0.5,0.3,0.8,0.8,0.8c0.2,0,0.3,0,0.4-0.1v1.2
					c-0.3,0.1-0.5,0.1-0.9,0.1c-1.4,0-1.6-0.8-1.6-2h0c-1,1.5-1.9,2.3-4.1,2.3c-2.1,0-3.8-1-3.8-3.3c0-3.2,3.1-3.3,6.1-3.6
					c1.1-0.1,1.8-0.3,1.8-1.5c0-1.9-1.3-2.3-3-2.3c-1.7,0-3,0.8-3,2.6H389z M396.3,343.2L396.3,343.2c-0.2,0.3-0.8,0.4-1.2,0.5
					c-2.3,0.4-5.3,0.4-5.3,2.6c0,1.4,1.2,2.2,2.5,2.2c2.1,0,3.9-1.3,3.9-3.5V343.2z"/>
				<path fill="#666666" d="M407.1,333.7h1.5v9.7c0,3.6,1.7,5,4.6,5c2.9,0,4.6-1.4,4.6-5v-9.7h1.5v10c0,3.2-1.7,6-6.1,6
					c-4.3,0-6.1-2.7-6.1-6V333.7z"/>
				<path fill="#666666" d="M429.1,333.4c3,0,5.9,1.8,6.3,5.1h-1.5c-0.5-2.4-2.5-3.8-4.8-3.8c-4.1,0-5.9,3.5-5.9,6.9
					s1.8,6.9,5.9,6.9c2.9,0,4.7-2.2,5-5h1.5c-0.4,3.9-2.8,6.3-6.5,6.3c-4.9,0-7.4-3.9-7.4-8.2S424.2,333.4,429.1,333.4z"/>
				<path fill="#666666" d="M444.4,333.7h1.5v6.8h9.3v-6.8h1.5v15.6h-1.5v-7.6h-9.3v7.6h-1.5V333.7z"/>
				<path fill="#666666" d="M459.9,333.7h1.5v9.7c0,3.6,1.7,5,4.6,5c2.9,0,4.6-1.4,4.6-5v-9.7h1.5v10c0,3.2-1.7,6-6.1,6
					c-4.3,0-6.1-2.7-6.1-6V333.7z"/>
				<path fill="#666666" d="M475.3,333.7h6.6c2.6,0,5,0.9,5,3.8c0,1.6-1.1,3.2-2.7,3.5v0c2,0.3,3.3,1.8,3.3,3.8
					c0,1.5-0.5,4.4-5.6,4.4h-6.6V333.7z M481.9,340.6c2.4,0,3.5-1.2,3.5-2.7c0-2-1.2-2.9-3.5-2.9h-5.1v5.6H481.9z M481.9,348.1
					c2.2,0,4.1-0.7,4.1-3.2c0-2-1.5-3-4.1-3h-5.1v6.2H481.9z"/>
				<path fill="#666666" d="M275.3,367.9c-0.4-1.7-1.4-2.7-3.2-2.7c-2.6,0-4,2.4-4,4.8s1.3,4.8,4,4.8c1.7,0,3.1-1.4,3.3-3.2h1.4
					c-0.4,2.7-2.1,4.4-4.7,4.4c-3.4,0-5.3-2.7-5.3-6s1.9-6,5.3-6c2.4,0,4.3,1.3,4.6,3.9H275.3z"/>
				<path fill="#666666" d="M286,370.7c-0.1,2.4,1.4,4.1,3.8,4.1c2,0,3.9-1.2,3.9-3.4c0-2.2-1.6-3.2-3.7-3.2h-1.2V367h1.2
					c1.4,0,3.1-0.8,3.1-2.8c0-2-1.5-2.9-3.4-2.9c-2.3,0-3.5,1.6-3.5,3.9H285c0-2.9,1.9-5,4.8-5c2.4,0,4.8,1.2,4.8,3.9
					c0,1.7-0.9,3-2.6,3.4v0c2,0.3,3.2,1.8,3.2,3.8c0,3-2.5,4.7-5.3,4.7c-3.2,0-5.5-1.9-5.2-5.2H286z"/>
				<path fill="#666666" d="M304.5,359.7c3.3,0,5.9,1.8,6.5,5.2h-1.5c-0.2-1.8-2.1-3.9-5-3.9c-4.1,0-5.9,3.5-5.9,6.9
					s1.8,6.9,5.9,6.9c3.5,0,5.5-2.4,5.4-5.7h-5.3v-1.3h6.6v8h-1.1l-0.2-2.8h0c-1.1,2.2-3.2,3.2-5.4,3.2c-4.9,0-7.4-3.9-7.4-8.2
					S299.6,359.7,304.5,359.7z"/>
				<path fill="#666666" d="M328.1,375.6v-9.7l-6.1,9.7h-1.7v-11.3h1.4v9.7l6.1-9.7h1.7v11.3H328.1z"/>
				<path fill="#666666" d="M337.3,360h1.6l3.5,13.7h0l3.8-13.7h1.9l3.8,13.7h0l3.6-13.7h1.5l-4.3,15.6h-1.6l-4-14h0l-3.9,14h-1.6
					L337.3,360z"/>
				<path fill="#666666" d="M359,360h1.4v2.2H359V360z M359,364.3h1.4v11.3H359V364.3z"/>
				<path fill="#666666" d="M363.5,360h9.9v1.3H365v5.7h7.5v1.3H365v7.5h-1.5V360z"/>
				<path fill="#666666" d="M375.3,360h1.4v2.2h-1.4V360z M375.3,364.3h1.4v11.3h-1.4V364.3z"/>
				<path fill="#666666" d="M396.5,375.6v-9.3h-0.1l-4,9.3h-1.2l-4-9.3h-0.1v9.3h-1.4v-11.3h1.8l4.2,9.8l4.2-9.8h1.8v11.3H396.5z"/>
				<path fill="#666666" d="M410.8,370c0,3.2-1.9,6-5.3,6c-3.4,0-5.3-2.7-5.3-6s1.9-6,5.3-6C408.9,364,410.8,366.7,410.8,370z
					 M401.5,370c0,2.4,1.3,4.8,4,4.8s4-2.4,4-4.8s-1.3-4.8-4-4.8S401.5,367.6,401.5,370z"/>
				<path fill="#666666" d="M421.9,379.2v-3.6h-9v3.6h-1.4v-4.8h1.3c1.1-2,1.6-4.6,1.6-8.3v-1.8h7.4v10.1h1.6v4.8H421.9z
					 M420.4,365.5h-4.6v0.7c0,3.7-0.5,6.2-1.5,8.2h6.1V365.5z"/>
				<path fill="#666666" d="M423.7,364.3h1.5l3.7,9.6l3.5-9.6h1.4l-4.9,13c-0.8,1.9-1.2,2.5-3,2.5c-0.5,0-0.8,0-1.1-0.1v-1.2
					c0.3,0.1,0.6,0.1,0.9,0.1c1.2,0,1.5-0.7,2-1.8l0.5-1.3L423.7,364.3z"/>
				<path fill="#666666" d="M442.1,375.6v-10.1h-4.6l-0.2,6.4c-0.1,3.1-1.2,4.1-2.9,4.1c-0.4,0-0.9-0.1-1.2-0.2v-1.1
					c0.4,0.2,0.7,0.2,1.1,0.2c1,0,1.5-0.5,1.6-3l0.2-7.4h7.3v11.3H442.1z"/>
				<path fill="#666666" d="M447.1,370.4c0,2,1.1,4.4,3.7,4.4c2,0,3.1-1.2,3.5-2.9h1.4c-0.6,2.6-2.1,4.1-4.9,4.1
					c-3.6,0-5.1-2.8-5.1-6c0-3,1.5-6,5.1-6c3.6,0,5.1,3.2,5,6.4H447.1z M454.4,369.2c-0.1-2.1-1.4-4-3.6-4c-2.3,0-3.5,2-3.7,4H454.4
					z"/>
				<path fill="#666666" d="M468.5,375.6v-9.3h-0.1l-4,9.3h-1.2l-4-9.3h-0.1v9.3h-1.4v-11.3h1.8l4.2,9.8l4.2-9.8h1.8v11.3H468.5z"/>
			</g>
		</g>
		<g>
			<g>
				<path fill="#666666" d="M642.9,307.4h1.5v9.7c0,3.6,1.7,5,4.6,5c2.9,0,4.6-1.4,4.6-5v-9.7h1.5v10c0,3.2-1.7,6-6.1,6
					c-4.3,0-6.1-2.7-6.1-6V307.4z"/>
				<path fill="#666666" d="M664.9,307.1c3,0,5.9,1.8,6.3,5.1h-1.5c-0.5-2.4-2.5-3.8-4.8-3.8c-4.1,0-5.9,3.5-5.9,6.9
					s1.8,6.9,5.9,6.9c2.9,0,4.7-2.2,5-5h1.5c-0.4,3.9-2.8,6.3-6.5,6.3c-4.9,0-7.4-3.9-7.4-8.2S660,307.1,664.9,307.1z"/>
				<path fill="#666666" d="M684.8,307.4h1.7l6.1,15.6H691l-1.9-4.9H682l-1.9,4.9h-1.6L684.8,307.4z M688.6,316.9l-3-8l-3.1,8H688.6
					z"/>
				<path fill="#666666" d="M694.3,307.4h6.9c2.8,0,4.6,1.6,4.6,4.5c0,2.8-1.8,4.5-4.6,4.5h-5.5v6.7h-1.5V307.4z M695.7,315.1h5.1
					c2.1,0,3.5-1,3.5-3.2s-1.4-3.2-3.5-3.2h-5.1V315.1z"/>
				<path fill="#666666" d="M708.3,307.4h6.9c2.8,0,4.6,1.6,4.6,4.5c0,2.8-1.8,4.5-4.6,4.5h-5.5v6.7h-1.5V307.4z M709.8,315.1h5.1
					c2.1,0,3.5-1,3.5-3.2s-1.4-3.2-3.5-3.2h-5.1V315.1z"/>
				<path fill="#666666" d="M733.6,323.1h-5.3v-11.3h5.3c2.3,0,3.5,1.1,3.5,2.8c0,1.3-0.8,2.1-1.9,2.4v0c1.5,0.3,2.4,1.2,2.4,2.8
					C737.7,321.9,736.2,323.1,733.6,323.1z M733.5,312.9h-3.8v3.7h3.8c1.6,0,2.4-0.7,2.4-1.8C735.9,313.5,735.1,312.9,733.5,312.9z
					 M733.5,317.7h-3.8v4.2h3.8c1.9,0,2.8-0.7,2.8-2.1C736.3,318.5,735.4,317.7,733.5,317.7z"/>
				<path fill="#666666" d="M739.9,323.1v-11.3h1.4v4.5h3.7c2.2,0,3.6,1.3,3.6,3.4c0,2.1-1.4,3.4-3.6,3.4H739.9z M741.3,317.4v4.5
					h3.4c1.6,0,2.5-0.8,2.5-2.3c0-1.4-0.9-2.3-2.5-2.3H741.3z M750.6,311.8h1.4v11.3h-1.4V311.8z"/>
				<path fill="#666666" d="M760.1,323.1h-5.3v-11.3h5.3c2.3,0,3.5,1.1,3.5,2.8c0,1.3-0.8,2.1-1.9,2.4v0c1.5,0.3,2.4,1.2,2.4,2.8
					C764.1,321.9,762.7,323.1,760.1,323.1z M760,312.9h-3.8v3.7h3.8c1.6,0,2.4-0.7,2.4-1.8C762.3,313.5,761.6,312.9,760,312.9z
					 M760,317.7h-3.8v4.2h3.8c1.9,0,2.8-0.7,2.8-2.1C762.8,318.5,761.9,317.7,760,317.7z"/>
				<path fill="#666666" d="M776.5,317.4c0,3.2-1.9,6-5.3,6c-3.4,0-5.3-2.7-5.3-6s1.9-6,5.3-6C774.6,311.4,776.5,314.2,776.5,317.4z
					 M767.2,317.4c0,2.4,1.3,4.8,4,4.8s4-2.4,4-4.8s-1.3-4.8-4-4.8S767.2,315,767.2,317.4z"/>
				<path fill="#666666" d="M787.7,326.7v-3.6h-9v3.6h-1.4v-4.8h1.3c1.1-2,1.6-4.6,1.6-8.3v-1.8h7.4v10.1h1.6v4.8H787.7z
					 M786.1,312.9h-4.6v0.7c0,3.7-0.5,6.2-1.5,8.2h6.1V312.9z"/>
				<path fill="#666666" d="M798.5,323.1v-9.7l-6.1,9.7h-1.7v-11.3h1.4v9.7l6.1-9.7h1.7v11.3H798.5z"/>
				<path fill="#666666" d="M807,312.9v10.1h-1.4v-10.1h-4.2v-1.2h9.8v1.2H807z"/>
				<path fill="#666666" d="M826.8,323.1v-9.7l-6.1,9.7H819v-11.3h1.4v9.7l6.1-9.7h1.7v11.3H826.8z"/>
				<path fill="#666666" d="M838.8,323.1v-5.3h-6.4v5.3H831v-11.3h1.4v4.8h6.4v-4.8h1.4v11.3H838.8z"/>
				<path fill="#666666" d="M849.7,321.9c-0.6,0.9-1.6,1.4-2.8,1.4c-2.4,0-4.4-1.8-4.4-5.9c0-3.9,1.8-6,4.4-6c1.2,0,2.2,0.5,2.8,1.5
					h0v-5.5h1.4v5.5h0c0.6-1,1.7-1.5,2.9-1.5c2.7,0,4.3,2.1,4.3,6c0,4-2,5.9-4.4,5.9c-1.2,0-2.2-0.5-2.7-1.4h-0.1v5.2h-1.4
					L849.7,321.9L849.7,321.9z M847.2,322.2c1.4,0,2.5-1,2.5-2.5v-4.7c0-1.3-1.2-2.5-2.6-2.5c-1.9,0-3.3,1.4-3.3,4.9
					C843.9,320.8,845.2,322.2,847.2,322.2z M853.7,312.6c-1.4,0-2.6,1-2.6,2.4v4.8c0,1.5,1.1,2.5,2.5,2.5c2,0,3.4-1.4,3.4-4.8
					C857,314,855.6,312.6,853.7,312.6z"/>
				<path fill="#666666" d="M870.8,317.4c0,3.2-1.9,6-5.3,6c-3.4,0-5.3-2.7-5.3-6s1.9-6,5.3-6C868.9,311.4,870.8,314.2,870.8,317.4z
					 M861.5,317.4c0,2.4,1.3,4.8,4,4.8s4-2.4,4-4.8s-1.3-4.8-4-4.8S861.5,315,861.5,317.4z"/>
				<path fill="#666666" d="M873.1,311.8h1.3v2.1h0c0.6-1.6,2.2-2.5,4-2.5c3.4,0,5.1,2.8,5.1,6s-1.6,6-5.1,6c-1.7,0-3.3-0.8-3.9-2.5
					h0v6.3h-1.4V311.8z M878.5,312.6c-3.1,0-4,2.3-4,4.8c0,2.3,1.1,4.8,4,4.8c2.6,0,3.7-2.5,3.7-4.8S881.1,312.6,878.5,312.6z"/>
				<path fill="#666666" d="M896.6,323.1v-9.3h-0.1l-4,9.3h-1.2l-4-9.3h-0.1v9.3h-1.4v-11.3h1.8l4.2,9.8l4.2-9.8h1.8v11.3H896.6z"/>
				<path fill="#666666" d="M900.6,315.2c0.2-2.7,2-3.8,4.6-3.8c2,0,4.2,0.6,4.2,3.6v6c0,0.5,0.3,0.8,0.8,0.8c0.2,0,0.3,0,0.4-0.1
					v1.2c-0.3,0.1-0.5,0.1-0.9,0.1c-1.4,0-1.6-0.8-1.6-2h0c-1,1.5-1.9,2.3-4.1,2.3c-2.1,0-3.8-1-3.8-3.3c0-3.2,3.1-3.3,6.1-3.6
					c1.1-0.1,1.8-0.3,1.8-1.5c0-1.9-1.3-2.3-3-2.3c-1.7,0-3,0.8-3,2.6H900.6z M908,316.9L908,316.9c-0.2,0.3-0.8,0.4-1.2,0.5
					c-2.3,0.4-5.3,0.4-5.3,2.6c0,1.4,1.2,2.2,2.5,2.2c2.1,0,3.9-1.3,3.9-3.5V316.9z"/>
				<path fill="#666666" d="M921.7,326.7v-3.6h-9.4v-11.3h1.4v10.1h6.4v-10.1h1.4v10.1h1.6v4.8H921.7z"/>
				<path fill="#666666" d="M932.5,323.1v-9.7l-6.1,9.7h-1.7v-11.3h1.4v9.7l6.1-9.7h1.7v11.3H932.5z"/>
				<path fill="#666666" d="M951.3,317.4c0,3.2-1.9,6-5.3,6c-3.3,0-5.2-2.5-5.3-5.7h-2.5v5.3h-1.4v-11.3h1.4v4.8h2.6
					c0.3-2.9,2.1-5.1,5.3-5.1C949.4,311.4,951.3,314.2,951.3,317.4z M942,317.4c0,2.4,1.3,4.8,4,4.8c2.6,0,4-2.4,4-4.8
					s-1.3-4.8-4-4.8C943.3,312.6,942,315,942,317.4z"/>
				<path fill="#666666" d="M670.4,349.3h-5.3V338h5.3c2.3,0,3.5,1.1,3.5,2.8c0,1.3-0.8,2.1-1.9,2.4v0c1.5,0.3,2.4,1.2,2.4,2.8
					C674.4,348.2,673,349.3,670.4,349.3z M670.3,339.2h-3.8v3.7h3.8c1.6,0,2.4-0.7,2.4-1.8C672.6,339.8,671.9,339.2,670.3,339.2z
					 M670.3,344h-3.8v4.2h3.8c1.9,0,2.8-0.7,2.8-2.1C673.1,344.7,672.2,344,670.3,344z"/>
				<path fill="#666666" d="M681.8,338h1.5l3.7,9.6l3.5-9.6h1.4l-4.9,13c-0.8,1.9-1.2,2.5-3,2.5c-0.5,0-0.8,0-1.1-0.1v-1.2
					c0.3,0.1,0.6,0.1,0.9,0.1c1.2,0,1.5-0.7,2-1.8l0.5-1.3L681.8,338z"/>
				<path fill="#666666" d="M701.9,352.9v-3.6h-9.1v3.6h-1.4v-4.8h1.3c1.1-2,1.6-4.6,1.6-8.3V338h7.4v10.1h1.6v4.8H701.9z
					 M700.4,339.2h-4.6v0.7c0,3.7-0.5,6.2-1.5,8.2h6.1V339.2z"/>
				<path fill="#666666" d="M715.1,343.7c0,3.2-1.9,6-5.3,6c-3.4,0-5.3-2.7-5.3-6s1.9-6,5.3-6C713.2,337.7,715.1,340.4,715.1,343.7z
					 M705.8,343.7c0,2.4,1.3,4.8,4,4.8s4-2.4,4-4.8s-1.3-4.8-4-4.8S705.8,341.3,705.8,343.7z"/>
				<path fill="#666666" d="M722.3,349.7c-3.4,0-5.2-2.5-5.2-6.5c0-5.4,1.4-8.2,5.4-8.6l1.7-0.2c1.2-0.1,1.5-0.3,1.6-0.7h1.5
					c-0.3,1.3-0.9,1.8-2.8,2l-1.7,0.2c-2.5,0.2-3.9,1.4-4.4,4.9h0.1c0.8-1.6,2.3-2.5,4.2-2.5c2.9,0,5,2.3,5,5.7
					C727.5,347.4,725.4,349.7,722.3,349.7z M722.4,339.4c-2.3,0-4,1.7-4,4.5c0,2.7,1.6,4.6,3.9,4.6c2.2,0,3.8-1.7,3.8-4.6
					C726.1,341.2,724.6,339.4,722.4,339.4z"/>
				<path fill="#666666" d="M737.6,349.3V344h-6.4v5.3h-1.4V338h1.4v4.8h6.4V338h1.4v11.3H737.6z"/>
				<path fill="#666666" d="M751.9,343.7c0,3.2-1.9,6-5.3,6s-5.3-2.7-5.3-6s1.9-6,5.3-6S751.9,340.4,751.9,343.7z M742.6,343.7
					c0,2.4,1.3,4.8,4,4.8s4-2.4,4-4.8s-1.3-4.8-4-4.8S742.6,341.3,742.6,343.7z"/>
				<path fill="#666666" d="M764.8,349.3V340h-0.1l-4,9.3h-1.2l-4-9.3h-0.1v9.3h-1.4V338h1.8l4.2,9.8l4.2-9.8h1.8v11.3H764.8z"/>
				<path fill="#666666" d="M783.1,349.3v-9.7l-6.1,9.7h-1.7V338h1.4v9.7l6.1-9.7h1.7v11.3H783.1z"/>
				<path fill="#666666" d="M801.6,341.6c-0.4-1.7-1.4-2.7-3.2-2.7c-2.6,0-4,2.4-4,4.8s1.3,4.8,4,4.8c1.7,0,3.1-1.4,3.3-3.2h1.4
					c-0.4,2.7-2.1,4.4-4.7,4.4c-3.4,0-5.3-2.7-5.3-6s1.9-6,5.3-6c2.4,0,4.2,1.3,4.6,3.9H801.6z"/>
				<path fill="#666666" d="M815.3,343.7c0,3.2-1.9,6-5.3,6c-3.4,0-5.3-2.7-5.3-6s1.9-6,5.3-6C813.4,337.7,815.3,340.4,815.3,343.7z
					 M806,343.7c0,2.4,1.3,4.8,4,4.8c2.6,0,4-2.4,4-4.8s-1.3-4.8-4-4.8C807.4,338.9,806,341.3,806,343.7z"/>
				<path fill="#666666" d="M822.9,349.3h-5.3V338h5.3c2.3,0,3.5,1.1,3.5,2.8c0,1.3-0.8,2.1-1.9,2.4v0c1.5,0.3,2.4,1.2,2.4,2.8
					C826.9,348.2,825.5,349.3,822.9,349.3z M822.7,339.2H819v3.7h3.8c1.6,0,2.4-0.7,2.4-1.8C825.1,339.8,824.3,339.2,822.7,339.2z
					 M822.8,344H819v4.2h3.8c1.9,0,2.8-0.7,2.8-2.1C825.6,344.7,824.7,344,822.8,344z"/>
				<path fill="#666666" d="M829.2,338h1.3v2.1h0c0.6-1.6,2.2-2.5,4-2.5c3.4,0,5.1,2.8,5.1,6s-1.6,6-5.1,6c-1.7,0-3.3-0.8-3.9-2.5h0
					v6.3h-1.4V338z M834.6,338.9c-3.1,0-4,2.3-4,4.8c0,2.3,1.1,4.8,4,4.8c2.6,0,3.7-2.5,3.7-4.8S837.2,338.9,834.6,338.9z"/>
				<path fill="#666666" d="M842.8,344.1c0,2,1.1,4.4,3.7,4.4c2,0,3.1-1.2,3.5-2.9h1.4c-0.6,2.6-2.1,4.1-4.9,4.1
					c-3.6,0-5.1-2.8-5.1-6c0-3,1.5-6,5.1-6c3.6,0,5.1,3.2,5,6.4H842.8z M850.1,342.9c-0.1-2.1-1.4-4-3.6-4c-2.3,0-3.5,2-3.7,4H850.1
					z"/>
				<path fill="#666666" d="M864.2,349.3V340h-0.1l-4,9.3H859l-4-9.3h-0.1v9.3h-1.4V338h1.8l4.2,9.8l4.2-9.8h1.8v11.3H864.2z"/>
				<path fill="#666666" d="M869.3,344.1c0,2,1.1,4.4,3.7,4.4c2,0,3.1-1.2,3.5-2.9h1.4c-0.6,2.6-2.1,4.1-4.9,4.1
					c-3.6,0-5.1-2.8-5.1-6c0-3,1.5-6,5.1-6c3.6,0,5.1,3.2,5,6.4H869.3z M876.6,342.9c-0.1-2.1-1.4-4-3.6-4c-2.3,0-3.5,2-3.7,4H876.6
					z"/>
				<path fill="#666666" d="M887.8,349.3V344h-6.4v5.3H880V338h1.4v4.8h6.4V338h1.4v11.3H887.8z"/>
				<path fill="#666666" d="M899.8,349.3V344h-6.4v5.3H892V338h1.4v4.8h6.4V338h1.4v11.3H899.8z"/>
				<path fill="#666666" d="M914.1,343.7c0,3.2-1.9,6-5.3,6c-3.4,0-5.3-2.7-5.3-6s1.9-6,5.3-6C912.2,337.7,914.1,340.4,914.1,343.7z
					 M904.8,343.7c0,2.4,1.3,4.8,4,4.8c2.6,0,4-2.4,4-4.8s-1.3-4.8-4-4.8C906.1,338.9,904.8,341.3,904.8,343.7z"/>
				<path fill="#666666" d="M927,349.3V340H927l-4,9.3h-1.2l-4-9.3h-0.1v9.3h-1.4V338h1.8l4.2,9.8l4.2-9.8h1.8v11.3H927z"/>
				<path fill="#666666" d="M744.8,375.6v-9.7l-6.1,9.7H737v-11.3h1.4v9.7l6.1-9.7h1.7v11.3H744.8z"/>
				<path fill="#666666" d="M756.7,375.6v-5.3h-6.4v5.3h-1.4v-11.3h1.4v4.8h6.4v-4.8h1.4v11.3H756.7z"/>
				<path fill="#666666" d="M765.2,365.5v10.1h-1.4v-10.1h-4.2v-1.2h9.8v1.2H765.2z"/>
				<path fill="#666666" d="M771.3,370.4c0,2,1.1,4.4,3.7,4.4c2,0,3.1-1.2,3.5-2.9h1.4c-0.6,2.6-2.1,4.1-4.9,4.1
					c-3.6,0-5.1-2.8-5.1-6c0-3,1.5-6,5.1-6c3.6,0,5.1,3.2,5,6.4H771.3z M778.6,369.2c-0.1-2.1-1.4-4-3.6-4c-2.3,0-3.5,2-3.7,4H778.6
					z"/>
				<path fill="#666666" d="M782.1,364.3h1.3v2.1h0c0.6-1.6,2.2-2.5,4-2.5c3.4,0,5.1,2.8,5.1,6s-1.6,6-5.1,6c-1.7,0-3.3-0.8-3.9-2.5
					h0v6.3h-1.4V364.3z M787.4,365.2c-3.1,0-4,2.3-4,4.8c0,2.3,1.1,4.8,4,4.8c2.6,0,3.7-2.5,3.7-4.8S790.1,365.2,787.4,365.2z"/>
				<path fill="#666666" d="M801.6,374.5c-0.6,0.9-1.6,1.4-2.8,1.4c-2.4,0-4.4-1.8-4.4-5.9c0-3.9,1.8-6,4.4-6c1.2,0,2.2,0.5,2.8,1.5
					h0V360h1.4v5.5h0c0.6-1,1.7-1.5,2.9-1.5c2.7,0,4.3,2.1,4.3,6c0,4-2,5.9-4.4,5.9c-1.2,0-2.2-0.5-2.7-1.4H803v5.2h-1.4
					L801.6,374.5L801.6,374.5z M799.1,374.8c1.4,0,2.5-1,2.5-2.5v-4.7c0-1.3-1.2-2.5-2.6-2.5c-1.9,0-3.3,1.4-3.3,4.9
					C795.8,373.3,797.2,374.8,799.1,374.8z M805.6,365.2c-1.4,0-2.6,1-2.6,2.4v4.8c0,1.5,1.1,2.5,2.5,2.5c2,0,3.4-1.4,3.4-4.8
					C808.9,366.6,807.5,365.2,805.6,365.2z"/>
				<path fill="#666666" d="M813.5,370.4c0,2,1.1,4.4,3.7,4.4c2,0,3.1-1.2,3.5-2.9h1.4c-0.6,2.6-2.1,4.1-4.9,4.1
					c-3.6,0-5.1-2.8-5.1-6c0-3,1.5-6,5.1-6c3.6,0,5.1,3.2,5,6.4H813.5z M820.8,369.2c-0.1-2.1-1.4-4-3.6-4c-2.3,0-3.5,2-3.7,4H820.8
					z"/>
				<path fill="#666666" d="M832,375.6v-9.7l-6.1,9.7h-1.7v-11.3h1.4v9.7l6.1-9.7h1.7v11.3H832z M826.7,359.8
					c0.1,1.2,1.2,1.8,2.3,1.8c1.1,0,2.1-0.7,2.3-1.8h0.9c-0.2,1.7-1.4,2.8-3.2,2.8c-1.8,0-3-1-3.1-2.8H826.7z"/>
				<path fill="#666666" d="M844.2,367.9c-0.4-1.7-1.4-2.7-3.2-2.7c-2.6,0-4,2.4-4,4.8s1.3,4.8,4,4.8c1.7,0,3.1-1.4,3.3-3.2h1.4
					c-0.4,2.7-2.1,4.4-4.7,4.4c-3.4,0-5.3-2.7-5.3-6s1.9-6,5.3-6c2.4,0,4.3,1.3,4.6,3.9H844.2z"/>
				<path fill="#666666" d="M848.6,370.4c0,2,1.1,4.4,3.7,4.4c2,0,3.1-1.2,3.5-2.9h1.4c-0.6,2.6-2.1,4.1-4.9,4.1
					c-3.6,0-5.1-2.8-5.1-6c0-3,1.5-6,5.1-6c3.6,0,5.1,3.2,5,6.4H848.6z M855.9,369.2c-0.1-2.1-1.4-4-3.6-4c-2.3,0-3.5,2-3.7,4H855.9
					z"/>
			</g>
		</g>
		<g>
			<g>
				<path fill="#666666" d="M505.8,136.2c3,0,5.9,1.8,6.3,5.1h-1.5c-0.5-2.4-2.5-3.8-4.8-3.8c-4.1,0-5.9,3.5-5.9,6.9
					s1.8,6.9,5.9,6.9c2.9,0,4.7-2.2,5-5h1.5c-0.4,3.9-2.8,6.3-6.5,6.3c-4.9,0-7.4-3.9-7.4-8.2S500.9,136.2,505.8,136.2z"/>
				<path fill="#666666" d="M514.5,152.1v-11.3h1.4v4.5h3.7c2.2,0,3.6,1.3,3.6,3.4c0,2.1-1.4,3.4-3.6,3.4H514.5z M515.9,146.5v4.5
					h3.4c1.6,0,2.5-0.8,2.5-2.3c0-1.4-0.9-2.3-2.5-2.3H515.9z M525.2,140.8h1.4v11.3h-1.4V140.8z"/>
				<path fill="#666666" d="M529.5,140.8h1.3v2.1h0c0.6-1.6,2.2-2.5,4-2.5c3.4,0,5.1,2.8,5.1,6s-1.6,6-5.1,6c-1.7,0-3.3-0.8-3.9-2.5
					h0v6.3h-1.4V140.8z M534.8,141.7c-3.1,0-4,2.3-4,4.8c0,2.3,1.1,4.8,4,4.8c2.6,0,3.7-2.5,3.7-4.8S537.4,141.7,534.8,141.7z"/>
				<path fill="#666666" d="M542.2,152.1v-11.3h1.4v4.5h3.7c2.2,0,3.6,1.3,3.6,3.4c0,2.1-1.4,3.4-3.6,3.4H542.2z M543.6,146.5v4.5
					h3.4c1.6,0,2.5-0.8,2.5-2.3c0-1.4-0.9-2.3-2.5-2.3H543.6z M552.9,140.8h1.4v11.3h-1.4V140.8z"/>
				<path fill="#666666" d="M558,146.9c0,2,1.1,4.4,3.7,4.4c2,0,3.1-1.2,3.5-2.9h1.4c-0.6,2.6-2.1,4.1-4.9,4.1c-3.6,0-5.1-2.8-5.1-6
					c0-3,1.5-6,5.1-6c3.6,0,5.1,3.2,5,6.4H558z M565.3,145.7c-0.1-2.1-1.4-4-3.6-4c-2.3,0-3.5,2-3.7,4H565.3z"/>
				<path fill="#666666" d="M584.3,155.7v-3.6h-9v3.6h-1.4V151h1.3c1.1-2,1.6-4.6,1.6-8.3v-1.8h7.4V151h1.6v4.8H584.3z M582.7,142
					h-4.6v0.7c0,3.7-0.5,6.2-1.5,8.2h6.1V142z"/>
				<path fill="#666666" d="M587.2,144.3c0.2-2.7,2-3.8,4.6-3.8c2,0,4.2,0.6,4.2,3.6v6c0,0.5,0.3,0.8,0.8,0.8c0.2,0,0.3,0,0.4-0.1
					v1.2c-0.3,0.1-0.5,0.1-0.9,0.1c-1.4,0-1.6-0.8-1.6-2h0c-1,1.5-1.9,2.3-4.1,2.3c-2.1,0-3.8-1-3.8-3.3c0-3.2,3.1-3.3,6.1-3.6
					c1.1-0.1,1.8-0.3,1.8-1.5c0-1.9-1.3-2.3-3-2.3c-1.7,0-3,0.8-3,2.6H587.2z M594.6,146L594.6,146c-0.2,0.3-0.8,0.4-1.2,0.5
					c-2.3,0.4-5.3,0.4-5.3,2.6c0,1.4,1.2,2.2,2.5,2.2c2.1,0,3.9-1.3,3.9-3.5V146z"/>
				<path fill="#666666" d="M606.7,152.1v-5.3h-6.4v5.3h-1.4v-11.3h1.4v4.8h6.4v-4.8h1.4v11.3H606.7z"/>
				<path fill="#666666" d="M618.7,152.1v-5.3h-6.4v5.3h-1.4v-11.3h1.4v4.8h6.4v-4.8h1.4v11.3H618.7z"/>
				<path fill="#666666" d="M622.9,152.1v-11.3h1.4v4.5h3.7c2.2,0,3.6,1.3,3.6,3.4c0,2.1-1.4,3.4-3.6,3.4H622.9z M624.3,146.5v4.5
					h3.4c1.6,0,2.5-0.8,2.5-2.3c0-1.4-0.9-2.3-2.5-2.3H624.3z M633.6,140.8h1.4v11.3h-1.4V140.8z"/>
				<path fill="#666666" d="M638.6,146.9c0,2,1.1,4.4,3.7,4.4c2,0,3.1-1.2,3.5-2.9h1.4c-0.6,2.6-2.1,4.1-4.9,4.1
					c-3.6,0-5.1-2.8-5.1-6c0-3,1.5-6,5.1-6c3.6,0,5.1,3.2,5,6.4H638.6z M645.9,145.7c-0.1-2.1-1.4-4-3.6-4c-2.3,0-3.5,2-3.7,4H645.9
					z"/>
				<path fill="#666666" d="M467.7,178.4v-10.1h-6.4v10.1h-1.4v-11.3h9.2v11.3H467.7z"/>
				<path fill="#666666" d="M482.1,172.8c0,3.2-1.9,6-5.3,6c-3.4,0-5.3-2.7-5.3-6s1.9-6,5.3-6C480.2,166.8,482.1,169.5,482.1,172.8z
					 M472.8,172.8c0,2.4,1.3,4.8,4,4.8s4-2.4,4-4.8s-1.3-4.8-4-4.8S472.8,170.4,472.8,172.8z"/>
				<path fill="#666666" d="M492.3,170.7c-0.4-1.7-1.4-2.7-3.2-2.7c-2.6,0-4,2.4-4,4.8s1.3,4.8,4,4.8c1.7,0,3.1-1.4,3.3-3.2h1.4
					c-0.4,2.7-2.1,4.4-4.7,4.4c-3.4,0-5.3-2.7-5.3-6s1.9-6,5.3-6c2.4,0,4.3,1.3,4.6,3.9H492.3z"/>
				<path fill="#666666" d="M500.2,168.3v10.1h-1.4v-10.1h-4.2v-1.2h9.8v1.2H500.2z"/>
				<path fill="#666666" d="M504.6,167.1h1.5l3.7,9.6l3.5-9.6h1.4l-4.9,13c-0.8,1.9-1.2,2.5-3,2.5c-0.5,0-0.8,0-1.1-0.1v-1.2
					c0.3,0.1,0.6,0.1,0.9,0.1c1.2,0,1.5-0.7,2-1.8l0.5-1.3L504.6,167.1z"/>
				<path fill="#666666" d="M524,178.4v-10.1h-6.4v10.1h-1.4v-11.3h9.2v11.3H524z"/>
				<path fill="#666666" d="M528.1,170.6c0.2-2.7,2-3.8,4.6-3.8c2,0,4.2,0.6,4.2,3.6v6c0,0.5,0.3,0.8,0.8,0.8c0.2,0,0.3,0,0.4-0.1
					v1.2c-0.3,0.1-0.5,0.1-0.9,0.1c-1.4,0-1.6-0.8-1.6-2h0c-1,1.5-1.9,2.3-4.1,2.3c-2.1,0-3.8-1-3.8-3.3c0-3.2,3.1-3.3,6.1-3.6
					c1.1-0.1,1.8-0.3,1.8-1.5c0-1.9-1.3-2.3-3-2.3c-1.7,0-3,0.8-3,2.6H528.1z M535.5,172.3L535.5,172.3c-0.2,0.3-0.8,0.4-1.2,0.5
					c-2.3,0.4-5.3,0.4-5.3,2.6c0,1.4,1.2,2.2,2.5,2.2c2.1,0,3.9-1.3,3.9-3.5V172.3z"/>
				<path fill="#666666" d="M554.4,172.8c0,3.2-1.9,6-5.3,6c-3.3,0-5.2-2.5-5.3-5.7h-2.5v5.3h-1.4v-11.3h1.4v4.8h2.6
					c0.3-2.9,2.1-5.1,5.3-5.1C552.5,166.8,554.4,169.5,554.4,172.8z M545.1,172.8c0,2.4,1.3,4.8,4,4.8s4-2.4,4-4.8s-1.3-4.8-4-4.8
					S545.1,170.4,545.1,172.8z"/>
				<path fill="#666666" d="M560.5,168.3v10.1h-1.4v-10.1H555v-1.2h9.8v1.2H560.5z"/>
				<path fill="#666666" d="M577.8,178.4h-5.3v-11.3h5.3c2.3,0,3.5,1.1,3.5,2.8c0,1.3-0.8,2.1-1.9,2.4v0c1.5,0.3,2.4,1.2,2.4,2.8
					C581.9,177.3,580.4,178.4,577.8,178.4z M577.7,168.3h-3.8v3.7h3.8c1.6,0,2.4-0.7,2.4-1.8C580.1,168.9,579.3,168.3,577.7,168.3z
					 M577.7,173.1h-3.8v4.2h3.8c1.9,0,2.8-0.7,2.8-2.1C580.5,173.8,579.6,173.1,577.7,173.1z"/>
				<path fill="#666666" d="M600.6,172.8c0,3.2-1.9,6-5.3,6c-3.4,0-5.3-2.7-5.3-6s1.9-6,5.3-6C598.7,166.8,600.6,169.5,600.6,172.8z
					 M591.3,172.8c0,2.4,1.3,4.8,4,4.8s4-2.4,4-4.8s-1.3-4.8-4-4.8S591.3,170.4,591.3,172.8z"/>
				<path fill="#666666" d="M607.7,178.8c-3.4,0-5.2-2.5-5.2-6.5c0-5.4,1.4-8.2,5.4-8.6l1.7-0.2c1.2-0.1,1.5-0.3,1.6-0.7h1.5
					c-0.3,1.3-0.9,1.8-2.8,2l-1.7,0.2c-2.5,0.2-3.9,1.4-4.4,4.9h0.1c0.8-1.6,2.3-2.5,4.2-2.5c2.9,0,5,2.3,5,5.7
					C613,176.5,610.8,178.8,607.7,178.8z M607.9,168.5c-2.3,0-4,1.7-4,4.5c0,2.7,1.6,4.6,3.9,4.6c2.2,0,3.8-1.7,3.8-4.6
					C611.6,170.3,610,168.5,607.9,168.5z"/>
				<path fill="#666666" d="M622.4,178.4v-10.1h-4.6l-0.2,6.4c-0.1,3.1-1.2,4.1-2.9,4.1c-0.4,0-0.9-0.1-1.2-0.2v-1.1
					c0.4,0.2,0.7,0.2,1.1,0.2c1,0,1.5-0.5,1.6-3l0.2-7.4h7.3v11.3H622.4z"/>
				<path fill="#666666" d="M626.5,170.6c0.2-2.7,2-3.8,4.6-3.8c2,0,4.2,0.6,4.2,3.6v6c0,0.5,0.3,0.8,0.8,0.8c0.2,0,0.3,0,0.4-0.1
					v1.2c-0.3,0.1-0.5,0.1-0.9,0.1c-1.4,0-1.6-0.8-1.6-2h0c-1,1.5-1.9,2.3-4.1,2.3c-2.1,0-3.8-1-3.8-3.3c0-3.2,3.1-3.3,6.1-3.6
					c1.1-0.1,1.8-0.3,1.8-1.5c0-1.9-1.3-2.3-3-2.3c-1.7,0-3,0.8-3,2.6H626.5z M633.8,172.3L633.8,172.3c-0.2,0.3-0.8,0.4-1.2,0.5
					c-2.3,0.4-5.3,0.4-5.3,2.6c0,1.4,1.2,2.2,2.5,2.2c2.1,0,3.9-1.3,3.9-3.5V172.3z"/>
				<path fill="#666666" d="M641.6,173.7c-2.4,0-3.8-1-3.8-3.6v-3h1.4v2.9c0,1.8,0.8,2.5,2.5,2.5c1.4,0,2.8-0.3,3.6-0.6v-4.8h1.4
					v11.3h-1.4v-5.3C644.4,173.4,643.1,173.7,641.6,173.7z"/>
				<path fill="#666666" d="M657.3,178.4v-5.3h-6.4v5.3h-1.4v-11.3h1.4v4.8h6.4v-4.8h1.4v11.3H657.3z"/>
				<path fill="#666666" d="M661.4,178.4v-11.3h1.4v4.5h3.7c2.2,0,3.6,1.3,3.6,3.4c0,2.1-1.4,3.4-3.6,3.4H661.4z M662.8,172.8v4.5
					h3.4c1.6,0,2.5-0.8,2.5-2.3c0-1.4-0.9-2.3-2.5-2.3H662.8z M672.1,167.1h1.4v11.3h-1.4V167.1z"/>
				<path fill="#666666" d="M684.1,178.4v-9.7l-6.1,9.7h-1.7v-11.3h1.4v9.7l6.1-9.7h1.7v11.3H684.1z M678.8,162.6
					c0.1,1.2,1.2,1.8,2.3,1.8c1.1,0,2.1-0.7,2.3-1.8h0.9c-0.2,1.7-1.4,2.8-3.2,2.8c-1.8,0-3-1-3.1-2.8H678.8z"/>
				<path fill="#666666" d="M471.5,197c-0.4-1.7-1.4-2.7-3.2-2.7c-2.6,0-4,2.4-4,4.8s1.3,4.8,4,4.8c1.7,0,3.1-1.4,3.3-3.2h1.4
					c-0.4,2.7-2.1,4.4-4.7,4.4c-3.4,0-5.3-2.7-5.3-6s1.9-6,5.3-6c2.4,0,4.3,1.3,4.6,3.9H471.5z"/>
				<path fill="#666666" d="M475.9,199.4c0,2,1.1,4.4,3.7,4.4c2,0,3.1-1.2,3.5-2.9h1.4c-0.6,2.6-2.1,4.1-4.9,4.1
					c-3.6,0-5.1-2.8-5.1-6c0-3,1.5-6,5.1-6c3.6,0,5.1,3.2,5,6.4H475.9z M483.2,198.3c-0.1-2.1-1.4-4-3.6-4c-2.3,0-3.5,2-3.7,4H483.2
					z"/>
				<path fill="#666666" d="M486.7,193.4h1.3v2.1h0c0.6-1.6,2.2-2.5,4-2.5c3.4,0,5.1,2.8,5.1,6s-1.6,6-5.1,6c-1.7,0-3.3-0.8-3.9-2.5
					h0v6.3h-1.4V193.4z M492,194.3c-3.1,0-4,2.3-4,4.8c0,2.3,1.1,4.8,4,4.8c2.6,0,3.7-2.5,3.7-4.8S494.7,194.3,492,194.3z"/>
				<path fill="#666666" d="M504.7,204.7h-5.3v-11.3h5.3c2.3,0,3.5,1.1,3.5,2.8c0,1.3-0.8,2.1-1.9,2.4v0c1.5,0.3,2.4,1.2,2.4,2.8
					C508.8,203.6,507.4,204.7,504.7,204.7z M504.6,194.6h-3.8v3.7h3.8c1.6,0,2.4-0.7,2.4-1.8C507,195.2,506.2,194.6,504.6,194.6z
					 M504.7,199.4h-3.8v4.2h3.8c1.9,0,2.8-0.7,2.8-2.1C507.4,200.1,506.5,199.4,504.7,199.4z"/>
				<path fill="#666666" d="M518.9,204.7V195l-6.1,9.7h-1.7v-11.3h1.4v9.7l6.1-9.7h1.7v11.3H518.9z"/>
				<path fill="#666666" d="M531,197c-0.4-1.7-1.4-2.7-3.2-2.7c-2.6,0-4,2.4-4,4.8s1.3,4.8,4,4.8c1.7,0,3.1-1.4,3.3-3.2h1.4
					c-0.4,2.7-2.1,4.4-4.7,4.4c-3.4,0-5.3-2.7-5.3-6s1.9-6,5.3-6c2.4,0,4.3,1.3,4.6,3.9H531z"/>
				<path fill="#666666" d="M541.1,189.1h1.5v9.7c0,3.6,1.7,5,4.6,5c2.9,0,4.6-1.4,4.6-5v-9.7h1.5v10c0,3.2-1.7,6-6.1,6
					c-4.3,0-6.1-2.7-6.1-6V189.1z"/>
				<path fill="#666666" d="M563.1,188.8c3,0,5.9,1.8,6.3,5.1h-1.5c-0.5-2.4-2.5-3.8-4.8-3.8c-4.1,0-5.9,3.5-5.9,6.9
					s1.8,6.9,5.9,6.9c2.9,0,4.7-2.2,5-5h1.5c-0.4,3.9-2.8,6.3-6.5,6.3c-4.9,0-7.4-3.9-7.4-8.2S558.1,188.8,563.1,188.8z"/>
				<path fill="#666666" d="M572.6,202.4h1.8v2.3c0,1.3-0.6,2.6-1.9,3v-0.9c0.7-0.2,1.1-1.4,1-2.1h-0.9V202.4z"/>
				<path fill="#666666" d="M592.6,196.2c0,1.3-0.8,2.1-1.8,2.5v0c1.2,0.2,2.2,1,2.2,2.7c0,2.1-1.8,3.7-4.5,3.7
					c-3,0-4.5-1.5-4.7-3.9h1.4c0.2,1.6,1.1,2.7,3.3,2.7c2.1,0,3.1-0.9,3.1-2.5c0-1.1-0.7-2-2.4-2h-1.9v-1.1h1.6
					c1.3,0,2.4-0.7,2.4-2.1c0-1.1-0.7-2-2.8-2c-2.1,0-2.9,1.1-3,2.5H584c0.2-2.7,2.2-3.6,4.4-3.6
					C591.3,193.1,592.6,194.4,592.6,196.2z"/>
				<path fill="#666666" d="M604.5,208.3v-3.6h-9v3.6h-1.4v-4.8h1.3c1.1-2,1.6-4.6,1.6-8.3v-1.8h7.4v10.1h1.6v4.8H604.5z M603,194.6
					h-4.6v0.7c0,3.7-0.5,6.2-1.5,8.2h6.1V194.6z"/>
				<path fill="#666666" d="M608.4,199.4c0,2,1.1,4.4,3.7,4.4c2,0,3.1-1.2,3.5-2.9h1.4c-0.6,2.6-2.1,4.1-4.9,4.1
					c-3.6,0-5.1-2.8-5.1-6c0-3,1.5-6,5.1-6c3.6,0,5.1,3.2,5,6.4H608.4z M615.7,198.3c-0.1-2.1-1.4-4-3.6-4c-2.3,0-3.5,2-3.7,4H615.7
					z"/>
				<path fill="#666666" d="M627.2,197c-0.4-1.7-1.4-2.7-3.2-2.7c-2.6,0-4,2.4-4,4.8s1.3,4.8,4,4.8c1.7,0,3.1-1.4,3.3-3.2h1.4
					c-0.4,2.7-2.1,4.4-4.7,4.4c-3.4,0-5.3-2.7-5.3-6s1.9-6,5.3-6c2.4,0,4.3,1.3,4.6,3.9H627.2z"/>
				<path fill="#666666" d="M630.7,204.7v-11.3h1.4v4.5h4.3c2.2,0,3.6,1.3,3.6,3.4c0,2.1-1.4,3.4-3.6,3.4H630.7z M632.1,199v4.5h4
					c1.6,0,2.5-0.8,2.5-2.3c0-1.4-0.9-2.3-2.5-2.3H632.1z"/>
				<path fill="#666666" d="M658.5,199.1c0,3.2-1.9,6-5.3,6c-3.4,0-5.3-2.7-5.3-6s1.9-6,5.3-6C656.6,193.1,658.5,195.8,658.5,199.1z
					 M649.2,199.1c0,2.4,1.3,4.8,4,4.8c2.6,0,4-2.4,4-4.8s-1.3-4.8-4-4.8C650.6,194.3,649.2,196.7,649.2,199.1z"/>
				<path fill="#666666" d="M668.6,204.7v-5.3h-6.4v5.3h-1.4v-11.3h1.4v4.8h6.4v-4.8h1.4v11.3H668.6z"/>
				<path fill="#666666" d="M680.6,204.7V195l-6.1,9.7h-1.7v-11.3h1.4v9.7l6.1-9.7h1.7v11.3H680.6z"/>
				<path fill="#666666" d="M499.1,225.4c0,3.2-1.9,6-5.3,6c-3.4,0-5.3-2.7-5.3-6s1.9-6,5.3-6C497.2,219.4,499.1,222.1,499.1,225.4z
					 M489.8,225.4c0,2.4,1.3,4.8,4,4.8s4-2.4,4-4.8s-1.3-4.8-4-4.8S489.8,223,489.8,225.4z"/>
				<path fill="#666666" d="M506.2,231.3c-3.4,0-5.2-2.5-5.2-6.5c0-5.4,1.4-8.2,5.4-8.6l1.7-0.2c1.2-0.1,1.5-0.3,1.6-0.7h1.5
					c-0.3,1.3-0.9,1.8-2.8,2l-1.7,0.2c-2.5,0.2-3.9,1.4-4.4,4.9h0.1c0.8-1.6,2.3-2.5,4.2-2.5c2.9,0,5,2.3,5,5.7
					C511.4,229.1,509.3,231.3,506.2,231.3z M506.3,221.1c-2.3,0-4,1.7-4,4.5c0,2.7,1.6,4.6,3.9,4.6c2.2,0,3.8-1.7,3.8-4.6
					C510.1,222.8,508.5,221.1,506.3,221.1z"/>
				<path fill="#666666" d="M513.7,219.7h1.3v2.1h0c0.6-1.6,2.2-2.5,4-2.5c3.4,0,5.1,2.8,5.1,6s-1.6,6-5.1,6c-1.7,0-3.3-0.8-3.9-2.5
					h0v6.3h-1.4V219.7z M519.1,220.5c-3.1,0-4,2.3-4,4.8c0,2.3,1.1,4.8,4,4.8c2.6,0,3.7-2.5,3.7-4.8S521.7,220.5,519.1,220.5z"/>
				<path fill="#666666" d="M526.4,223.2c0.2-2.7,2-3.8,4.6-3.8c2,0,4.2,0.6,4.2,3.6v6c0,0.5,0.3,0.8,0.8,0.8c0.2,0,0.3,0,0.4-0.1
					v1.2c-0.3,0.1-0.5,0.1-0.9,0.1c-1.4,0-1.6-0.8-1.6-2h0c-1,1.5-1.9,2.3-4.1,2.3c-2.1,0-3.8-1-3.8-3.3c0-3.2,3.1-3.3,6.1-3.6
					c1.1-0.1,1.8-0.3,1.8-1.5c0-1.9-1.3-2.3-3-2.3c-1.7,0-3,0.8-3,2.6H526.4z M533.8,224.8L533.8,224.8c-0.2,0.3-0.8,0.4-1.2,0.5
					c-2.3,0.4-5.3,0.4-5.3,2.6c0,1.4,1.2,2.2,2.5,2.2c2.1,0,3.9-1.3,3.9-3.5V224.8z"/>
				<path fill="#666666" d="M543,231.3c-3.4,0-5.2-2.5-5.2-6.5c0-5.4,1.4-8.2,5.4-8.6l1.7-0.2c1.2-0.1,1.5-0.3,1.6-0.7h1.5
					c-0.3,1.3-0.9,1.8-2.8,2l-1.7,0.2c-2.5,0.2-3.9,1.4-4.4,4.9h0.1c0.8-1.6,2.3-2.5,4.2-2.5c2.9,0,5,2.3,5,5.7
					C548.2,229.1,546.1,231.3,543,231.3z M543.1,221.1c-2.3,0-4,1.7-4,4.5c0,2.7,1.6,4.6,3.9,4.6c2.2,0,3.8-1.7,3.8-4.6
					C546.8,222.8,545.3,221.1,543.1,221.1z"/>
				<path fill="#666666" d="M550.4,223.2c0.2-2.7,2-3.8,4.6-3.8c2,0,4.2,0.6,4.2,3.6v6c0,0.5,0.3,0.8,0.8,0.8c0.2,0,0.3,0,0.4-0.1
					v1.2c-0.3,0.1-0.5,0.1-0.9,0.1c-1.4,0-1.6-0.8-1.6-2h0c-1,1.5-1.9,2.3-4.1,2.3c-2.1,0-3.8-1-3.8-3.3c0-3.2,3.1-3.3,6.1-3.6
					c1.1-0.1,1.8-0.3,1.8-1.5c0-1.9-1.3-2.3-3-2.3c-1.7,0-3,0.8-3,2.6H550.4z M557.8,224.8L557.8,224.8c-0.2,0.3-0.8,0.4-1.2,0.5
					c-2.3,0.4-5.3,0.4-5.3,2.6c0,1.4,1.2,2.2,2.5,2.2c2.1,0,3.9-1.3,3.9-3.5V224.8z"/>
				<path fill="#666666" d="M566.4,220.9V231H565v-10.1h-4.2v-1.2h9.8v1.2H566.4z"/>
				<path fill="#666666" d="M572.1,231v-11.3h1.4v4.5h3.7c2.2,0,3.6,1.3,3.6,3.4c0,2.1-1.4,3.4-3.6,3.4H572.1z M573.4,225.3v4.5h3.4
					c1.6,0,2.5-0.8,2.5-2.3c0-1.4-0.9-2.3-2.5-2.3H573.4z M582.8,219.7h1.4V231h-1.4V219.7z"/>
				<path fill="#666666" d="M592.2,231H587v-11.3h5.3c2.3,0,3.5,1.1,3.5,2.8c0,1.3-0.8,2.1-1.9,2.4v0c1.5,0.3,2.4,1.2,2.4,2.8
					C596.3,229.9,594.8,231,592.2,231z M592.1,220.8h-3.8v3.7h3.8c1.6,0,2.4-0.7,2.4-1.8C594.5,221.5,593.7,220.8,592.1,220.8z
					 M592.1,225.6h-3.8v4.2h3.8c1.9,0,2.8-0.7,2.8-2.1C594.9,226.4,594,225.6,592.1,225.6z"/>
				<path fill="#666666" d="M598.4,223.2c0.2-2.7,2-3.8,4.6-3.8c2,0,4.2,0.6,4.2,3.6v6c0,0.5,0.3,0.8,0.8,0.8c0.2,0,0.3,0,0.4-0.1
					v1.2c-0.3,0.1-0.5,0.1-0.9,0.1c-1.4,0-1.6-0.8-1.6-2h0c-1,1.5-1.9,2.3-4.1,2.3c-2.1,0-3.8-1-3.8-3.3c0-3.2,3.1-3.3,6.1-3.6
					c1.1-0.1,1.8-0.3,1.8-1.5c0-1.9-1.3-2.3-3-2.3c-1.7,0-3,0.8-3,2.6H598.4z M605.8,224.8L605.8,224.8c-0.2,0.3-0.8,0.4-1.2,0.5
					c-2.3,0.4-5.3,0.4-5.3,2.6c0,1.4,1.2,2.2,2.5,2.2c2.1,0,3.9-1.3,3.9-3.5V224.8z"/>
				<path fill="#666666" d="M624.7,225.4c0,3.2-1.9,6-5.3,6c-3.3,0-5.2-2.5-5.3-5.7h-2.5v5.3h-1.4v-11.3h1.4v4.8h2.6
					c0.3-2.9,2.1-5.1,5.3-5.1C622.8,219.4,624.7,222.1,624.7,225.4z M615.4,225.4c0,2.4,1.3,4.8,4,4.8s4-2.4,4-4.8s-1.3-4.8-4-4.8
					S615.4,223,615.4,225.4z"/>
				<path fill="#666666" d="M630.9,220.9V231h-1.4v-10.1h-4.2v-1.2h9.8v1.2H630.9z"/>
				<path fill="#666666" d="M644.2,223.3c-0.4-1.7-1.4-2.7-3.2-2.7c-2.6,0-4,2.4-4,4.8s1.3,4.8,4,4.8c1.7,0,3.1-1.4,3.3-3.2h1.4
					c-0.4,2.7-2.1,4.4-4.7,4.4c-3.4,0-5.3-2.7-5.3-6s1.9-6,5.3-6c2.4,0,4.2,1.3,4.6,3.9H644.2z"/>
				<path fill="#666666" d="M655.1,231v-4.8h-2.9l-3.9,4.8h-1.8l4.1-4.8c-2-0.1-3.3-1.2-3.3-3.2c0-2,1.4-3.3,3.5-3.3h5.6V231H655.1z
					 M651.1,220.9c-1.5,0-2.3,0.8-2.3,2.1c0,1.3,0.8,2.1,2.4,2.1h3.9v-4.2H651.1z"/>
				<path fill="#666666" d="M495.8,257.3v-9.7l-6.1,9.7H488V246h1.4v9.7l6.1-9.7h1.7v11.3H495.8z"/>
				<path fill="#666666" d="M506.2,249.5c0.2-2.7,2-3.8,4.6-3.8c2,0,4.2,0.6,4.2,3.6v6c0,0.5,0.3,0.8,0.8,0.8c0.2,0,0.3,0,0.4-0.1
					v1.2c-0.3,0.1-0.5,0.1-0.9,0.1c-1.4,0-1.6-0.8-1.6-2h0c-1,1.5-1.9,2.3-4.1,2.3c-2.1,0-3.8-1-3.8-3.3c0-3.2,3.1-3.3,6.1-3.6
					c1.1-0.1,1.8-0.3,1.8-1.5c0-1.9-1.3-2.3-3-2.3c-1.7,0-3,0.8-3,2.6H506.2z M513.6,251.1L513.6,251.1c-0.2,0.3-0.8,0.4-1.2,0.5
					c-2.3,0.4-5.3,0.4-5.3,2.6c0,1.4,1.2,2.2,2.5,2.2c2.1,0,3.9-1.3,3.9-3.5V251.1z"/>
				<path fill="#666666" d="M525.7,257.3V252h-6.4v5.3h-1.4V246h1.4v4.8h6.4V246h1.4v11.3H525.7z"/>
				<path fill="#666666" d="M529.8,249.5c0.2-2.7,2-3.8,4.6-3.8c2,0,4.2,0.6,4.2,3.6v6c0,0.5,0.3,0.8,0.8,0.8c0.2,0,0.3,0,0.4-0.1
					v1.2c-0.3,0.1-0.5,0.1-0.9,0.1c-1.4,0-1.6-0.8-1.6-2h0c-1,1.5-1.9,2.3-4.1,2.3c-2.1,0-3.8-1-3.8-3.3c0-3.2,3.1-3.3,6.1-3.6
					c1.1-0.1,1.8-0.3,1.8-1.5c0-1.9-1.3-2.3-3-2.3c-1.7,0-3,0.8-3,2.6H529.8z M537.1,251.1L537.1,251.1c-0.2,0.3-0.8,0.4-1.2,0.5
					c-2.3,0.4-5.3,0.4-5.3,2.6c0,1.4,1.2,2.2,2.5,2.2c2.1,0,3.9-1.3,3.9-3.5V251.1z"/>
				<path fill="#666666" d="M549.2,257.3v-10.1h-4.6l-0.2,6.4c-0.1,3.1-1.2,4.1-2.9,4.1c-0.4,0-0.9-0.1-1.2-0.2v-1.1
					c0.4,0.2,0.7,0.2,1.1,0.2c1,0,1.5-0.5,1.6-3l0.2-7.4h7.3v11.3H549.2z"/>
				<path fill="#666666" d="M561.1,257.3v-9.7l-6.1,9.7h-1.7V246h1.4v9.7l6.1-9.7h1.7v11.3H561.1z"/>
				<path fill="#666666" d="M573.5,248.8c0,1.3-0.8,2.1-1.8,2.5v0c1.2,0.2,2.2,1,2.2,2.7c0,2.1-1.8,3.7-4.5,3.7
					c-3,0-4.5-1.5-4.7-3.9h1.4c0.2,1.6,1.1,2.7,3.3,2.7c2.1,0,3.1-0.9,3.1-2.5c0-1.1-0.7-2-2.4-2h-1.9v-1.1h1.6
					c1.3,0,2.4-0.7,2.4-2.1c0-1.1-0.7-2-2.8-2c-2.1,0-2.9,1.1-3,2.5h-1.4c0.2-2.7,2.2-3.6,4.4-3.6
					C572.2,245.7,573.5,247,573.5,248.8z"/>
				<path fill="#666666" d="M584,257.3v-9.7l-6.1,9.7h-1.7V246h1.4v9.7l6.1-9.7h1.7v11.3H584z"/>
				<path fill="#666666" d="M588.2,246h1.3v2.1h0c0.6-1.6,2.2-2.5,4-2.5c3.4,0,5.1,2.8,5.1,6s-1.6,6-5.1,6c-1.7,0-3.3-0.8-3.9-2.5h0
					v6.3h-1.4V246z M593.5,246.8c-3.1,0-4,2.3-4,4.8c0,2.3,1.1,4.8,4,4.8c2.6,0,3.7-2.5,3.7-4.8S596.1,246.8,593.5,246.8z"/>
				<path fill="#666666" d="M599.4,246h1.5l3.7,9.6l3.5-9.6h1.4l-4.9,13c-0.8,1.9-1.2,2.5-3,2.5c-0.5,0-0.8,0-1.1-0.1v-1.2
					c0.3,0.1,0.6,0.1,0.9,0.1c1.2,0,1.5-0.7,2-1.8l0.5-1.3L599.4,246z"/>
				<path fill="#666666" d="M625.6,251.6c0,3.2-1.9,6-5.3,6c-3.3,0-5.2-2.5-5.3-5.7h-2.5v5.3H611V246h1.4v4.8h2.6
					c0.3-2.9,2.1-5.1,5.3-5.1C623.7,245.7,625.6,248.4,625.6,251.6z M616.3,251.6c0,2.4,1.3,4.8,4,4.8c2.6,0,4-2.4,4-4.8
					s-1.3-4.8-4-4.8C617.7,246.8,616.3,249.3,616.3,251.6z"/>
				<path fill="#666666" d="M631.8,247.2v10.1h-1.4v-10.1h-4.2V246h9.8v1.2H631.8z"/>
				<path fill="#666666" d="M645.1,249.5c-0.4-1.7-1.4-2.7-3.2-2.7c-2.6,0-4,2.4-4,4.8s1.3,4.8,4,4.8c1.7,0,3.1-1.4,3.3-3.2h1.4
					c-0.4,2.7-2.1,4.4-4.7,4.4c-3.4,0-5.3-2.7-5.3-6s1.9-6,5.3-6c2.4,0,4.2,1.3,4.6,3.9H645.1z"/>
				<path fill="#666666" d="M656,257.3v-4.8h-2.9l-3.9,4.8h-1.8l4.1-4.8c-2-0.1-3.3-1.2-3.3-3.2c0-2,1.4-3.3,3.5-3.3h5.6v11.3H656z
					 M652,247.2c-1.5,0-2.3,0.8-2.3,2.1c0,1.3,0.8,2.1,2.4,2.1h3.9v-4.2H652z"/>
			</g>
		</g>
		<g>
			<g>
				<path fill="#666666" d="M952.8,189.7c3,0,5.9,1.8,6.3,5.1h-1.5c-0.5-2.4-2.5-3.8-4.8-3.8c-4.1,0-5.9,3.5-5.9,6.9
					s1.8,6.9,5.9,6.9c2.9,0,4.7-2.2,5-5h1.5c-0.4,3.9-2.8,6.3-6.5,6.3c-4.9,0-7.4-3.9-7.4-8.2S947.9,189.7,952.8,189.7z"/>
				<path fill="#666666" d="M965,201c-2.4,0-3.8-1-3.8-3.6v-3h1.4v2.9c0,1.8,0.8,2.5,2.5,2.5c1.4,0,2.8-0.3,3.6-0.6v-4.8h1.4v11.3
					h-1.4v-5.3C967.8,200.6,966.4,201,965,201z"/>
				<path fill="#666666" d="M972.7,197.8c0.2-2.7,2-3.8,4.6-3.8c2,0,4.2,0.6,4.2,3.6v6c0,0.5,0.3,0.8,0.8,0.8c0.2,0,0.3,0,0.4-0.1
					v1.2c-0.3,0.1-0.5,0.1-0.9,0.1c-1.4,0-1.6-0.8-1.6-2h0c-1,1.5-1.9,2.3-4.1,2.3c-2.1,0-3.8-1-3.8-3.3c0-3.2,3.1-3.3,6.1-3.6
					c1.1-0.1,1.8-0.3,1.8-1.5c0-1.9-1.3-2.3-3-2.3c-1.7,0-3,0.8-3,2.6H972.7z M980.1,199.5L980.1,199.5c-0.2,0.3-0.8,0.4-1.2,0.5
					c-2.3,0.4-5.3,0.4-5.3,2.6c0,1.4,1.2,2.2,2.5,2.2c2.1,0,3.9-1.3,3.9-3.5V199.5z"/>
				<path fill="#666666" d="M992.4,197.9c-0.4-1.7-1.4-2.7-3.2-2.7c-2.6,0-4,2.4-4,4.8s1.3,4.8,4,4.8c1.7,0,3.1-1.4,3.3-3.2h1.4
					c-0.4,2.7-2.1,4.4-4.7,4.4c-3.4,0-5.3-2.7-5.3-6s1.9-6,5.3-6c2.4,0,4.2,1.3,4.6,3.9H992.4z"/>
				<path fill="#666666" d="M1000.3,195.5v10.1h-1.4v-10.1h-4.2v-1.2h9.8v1.2H1000.3z"/>
				<path fill="#666666" d="M1012.6,205.7v-10.1h-4.6l-0.2,6.4c-0.1,3.1-1.2,4.1-2.9,4.1c-0.4,0-0.9-0.1-1.2-0.2v-1.1
					c0.4,0.2,0.7,0.2,1.1,0.2c1,0,1.5-0.5,1.6-3l0.2-7.4h7.3v11.3H1012.6z"/>
				<path fill="#666666" d="M1024.6,205.7V196l-6.1,9.7h-1.7v-11.3h1.4v9.7l6.1-9.7h1.7v11.3H1024.6z"/>
				<path fill="#666666" d="M1034,205.7h-5.3v-11.3h5.3c2.3,0,3.5,1.1,3.5,2.8c0,1.3-0.8,2.1-1.9,2.4v0c1.5,0.3,2.4,1.2,2.4,2.8
					C1038.1,204.6,1036.7,205.7,1034,205.7z M1033.9,195.5h-3.8v3.7h3.8c1.6,0,2.4-0.7,2.4-1.8
					C1036.3,196.2,1035.5,195.5,1033.9,195.5z M1034,200.3h-3.8v4.2h3.8c1.9,0,2.8-0.7,2.8-2.1
					C1036.7,201.1,1035.8,200.3,1034,200.3z"/>
				<path fill="#666666" d="M1040.4,205.7v-11.3h1.4v4.5h3.7c2.2,0,3.6,1.3,3.6,3.4c0,2.1-1.4,3.4-3.6,3.4H1040.4z M1041.7,200v4.5
					h3.4c1.6,0,2.5-0.8,2.5-2.3c0-1.4-0.9-2.3-2.5-2.3H1041.7z M1051.1,194.4h1.4v11.3h-1.4V194.4z"/>
				<path fill="#666666" d="M1063,205.7V196l-6.1,9.7h-1.7v-11.3h1.4v9.7l6.1-9.7h1.7v11.3H1063z M1057.7,189.8
					c0.1,1.2,1.2,1.8,2.3,1.8c1.1,0,2.1-0.7,2.3-1.8h0.9c-0.2,1.7-1.4,2.8-3.2,2.8c-1.8,0-3-1-3.1-2.8H1057.7z"/>
				<path fill="#666666" d="M1073.4,197.8c0.2-2.7,2-3.8,4.6-3.8c2,0,4.2,0.6,4.2,3.6v6c0,0.5,0.3,0.8,0.8,0.8c0.2,0,0.3,0,0.4-0.1
					v1.2c-0.3,0.1-0.5,0.1-0.9,0.1c-1.4,0-1.6-0.8-1.6-2h0c-1,1.5-1.9,2.3-4.1,2.3c-2.1,0-3.8-1-3.8-3.3c0-3.2,3.1-3.3,6.1-3.6
					c1.1-0.1,1.8-0.3,1.8-1.5c0-1.9-1.3-2.3-3-2.3c-1.7,0-3,0.8-3,2.6H1073.4z M1080.8,199.5L1080.8,199.5c-0.2,0.3-0.8,0.4-1.2,0.5
					c-2.3,0.4-5.3,0.4-5.3,2.6c0,1.4,1.2,2.2,2.5,2.2c2.1,0,3.9-1.3,3.9-3.5V199.5z"/>
				<path fill="#666666" d="M1090,206c-3.4,0-5.2-2.5-5.2-6.5c0-5.4,1.4-8.2,5.4-8.6l1.7-0.2c1.2-0.1,1.5-0.3,1.6-0.7h1.5
					c-0.3,1.3-0.9,1.8-2.8,2l-1.7,0.2c-2.5,0.2-3.9,1.4-4.4,4.9h0.1c0.8-1.6,2.3-2.5,4.2-2.5c2.9,0,5,2.3,5,5.7
					C1095.3,203.7,1093.1,206,1090,206z M1090.1,195.7c-2.3,0-4,1.7-4,4.5c0,2.7,1.6,4.6,3.9,4.6c2.2,0,3.8-1.7,3.8-4.6
					C1093.9,197.5,1092.3,195.7,1090.1,195.7z"/>
				<path fill="#666666" d="M1107.7,200c0,3.2-1.9,6-5.3,6s-5.3-2.7-5.3-6s1.9-6,5.3-6S1107.7,196.8,1107.7,200z M1098.4,200
					c0,2.4,1.3,4.8,4,4.8s4-2.4,4-4.8s-1.3-4.8-4-4.8S1098.4,197.7,1098.4,200z"/>
				<path fill="#666666" d="M1117.7,205.7v-5.3h-6.4v5.3h-1.4v-11.3h1.4v4.8h6.4v-4.8h1.4v11.3H1117.7z"/>
				<path fill="#666666" d="M1122.7,200.4c0,2,1.1,4.4,3.7,4.4c2,0,3.1-1.2,3.5-2.9h1.4c-0.6,2.6-2.1,4.1-4.9,4.1
					c-3.6,0-5.1-2.8-5.1-6c0-3,1.5-6,5.1-6c3.6,0,5.1,3.2,5,6.4H1122.7z M1130.1,199.2c-0.1-2.1-1.4-4-3.6-4c-2.3,0-3.5,2-3.7,4
					H1130.1z"/>
				<path fill="#666666" d="M1141.3,205.7v-5.3h-6.4v5.3h-1.4v-11.3h1.4v4.8h6.4v-4.8h1.4v11.3H1141.3z"/>
				<path fill="#666666" d="M1149.8,195.5v10.1h-1.4v-10.1h-4.2v-1.2h9.8v1.2H1149.8z"/>
				<path fill="#666666" d="M940.5,232v-9.7l-6.1,9.7h-1.7v-11.3h1.4v9.7l6.1-9.7h1.7V232H940.5z"/>
				<path fill="#666666" d="M955.4,232v-9.3h-0.1l-4,9.3h-1.2l-4-9.3h-0.1v9.3h-1.4v-11.3h1.8l4.2,9.8l4.2-9.8h1.8V232H955.4z"/>
				<path fill="#666666" d="M960.4,226.7c0,2,1.1,4.4,3.7,4.4c2,0,3.1-1.2,3.5-2.9h1.4c-0.6,2.6-2.1,4.1-4.9,4.1
					c-3.6,0-5.1-2.8-5.1-6c0-3,1.5-6,5.1-6c3.6,0,5.1,3.2,5,6.4H960.4z M967.7,225.5c-0.1-2.1-1.4-4-3.6-4c-2.3,0-3.5,2-3.7,4H967.7
					z"/>
				<path fill="#666666" d="M972,226.7c0,2,1.1,4.4,3.7,4.4c2,0,3.1-1.2,3.5-2.9h1.4c-0.6,2.6-2.1,4.1-4.9,4.1c-3.6,0-5.1-2.8-5.1-6
					c0-3,1.5-6,5.1-6c3.6,0,5.1,3.2,5,6.4H972z M979.3,225.5c-0.1-2.1-1.4-4-3.6-4c-2.3,0-3.5,2-3.7,4H979.3z"/>
				<path fill="#666666" d="M986.6,221.8V232h-1.4v-10.1H981v-1.2h9.8v1.2H986.6z"/>
				<path fill="#666666" d="M1007.9,235.6V232h-9v3.6h-1.4v-4.8h1.3c1.1-2,1.6-4.6,1.6-8.3v-1.8h7.4v10.1h1.6v4.8H1007.9z
					 M1006.3,221.8h-4.6v0.7c0,3.7-0.5,6.2-1.5,8.2h6.1V221.8z"/>
				<path fill="#666666" d="M1021.1,226.3c0,3.2-1.9,6-5.3,6c-3.4,0-5.3-2.7-5.3-6s1.9-6,5.3-6
					C1019.2,220.3,1021.1,223.1,1021.1,226.3z M1011.8,226.3c0,2.4,1.3,4.8,4,4.8c2.6,0,4-2.4,4-4.8s-1.3-4.8-4-4.8
					C1013.1,221.5,1011.8,223.9,1011.8,226.3z"/>
				<path fill="#666666" d="M1031.3,224.2c-0.4-1.7-1.4-2.7-3.2-2.7c-2.6,0-4,2.4-4,4.8s1.3,4.8,4,4.8c1.7,0,3.1-1.4,3.3-3.2h1.4
					c-0.4,2.7-2.1,4.4-4.7,4.4c-3.4,0-5.3-2.7-5.3-6s1.9-6,5.3-6c2.4,0,4.3,1.3,4.6,3.9H1031.3z"/>
				<path fill="#666666" d="M1039.2,221.8V232h-1.4v-10.1h-4.2v-1.2h9.8v1.2H1039.2z"/>
				<path fill="#666666" d="M1043.6,220.7h1.5l3.7,9.6l3.5-9.6h1.4l-4.9,13c-0.8,1.9-1.2,2.5-3,2.5c-0.5,0-0.8,0-1.1-0.1v-1.2
					c0.3,0.1,0.6,0.1,0.9,0.1c1.2,0,1.5-0.7,2-1.8l0.5-1.3L1043.6,220.7z"/>
				<path fill="#666666" d="M1063,232v-10.1h-6.4V232h-1.4v-11.3h9.2V232H1063z"/>
				<path fill="#666666" d="M1073.6,220.7h1.4v5.7l6.3-5.7h1.8l-4.8,4.3l5.1,7.1h-1.7l-4.4-6.1l-2.3,2.1v4h-1.4V220.7z"/>
				<path fill="#666666" d="M1100.3,235.6V232h-9.1v3.6h-1.4v-4.8h1.3c1.1-2,1.6-4.6,1.6-8.3v-1.8h7.4v10.1h1.6v4.8H1100.3z
					 M1098.7,221.8h-4.6v0.7c0,3.7-0.5,6.2-1.5,8.2h6.1V221.8z"/>
				<path fill="#666666" d="M1103.2,224.1c0.2-2.7,2-3.8,4.6-3.8c2,0,4.2,0.6,4.2,3.6v6c0,0.5,0.3,0.8,0.8,0.8c0.2,0,0.3,0,0.4-0.1
					v1.2c-0.3,0.1-0.5,0.1-0.9,0.1c-1.4,0-1.6-0.8-1.6-2h0c-1,1.5-1.9,2.3-4.1,2.3c-2.1,0-3.8-1-3.8-3.3c0-3.2,3.1-3.3,6.1-3.6
					c1.1-0.1,1.8-0.3,1.8-1.5c0-1.9-1.3-2.3-3-2.3c-1.7,0-3,0.8-3,2.6H1103.2z M1110.6,225.8L1110.6,225.8c-0.2,0.3-0.8,0.4-1.2,0.5
					c-2.3,0.4-5.3,0.4-5.3,2.6c0,1.4,1.2,2.2,2.5,2.2c2.1,0,3.9-1.3,3.9-3.5V225.8z"/>
				<path fill="#666666" d="M1122.7,232v-5.3h-6.4v5.3h-1.4v-11.3h1.4v4.8h6.4v-4.8h1.4V232H1122.7z"/>
				<path fill="#666666" d="M1134.7,232v-5.3h-6.4v5.3h-1.4v-11.3h1.4v4.8h6.4v-4.8h1.4V232H1134.7z"/>
				<path fill="#666666" d="M1138.9,232v-11.3h1.4v4.5h3.7c2.2,0,3.6,1.3,3.6,3.4c0,2.1-1.4,3.4-3.6,3.4H1138.9z M1140.3,226.3v4.5
					h3.4c1.6,0,2.5-0.8,2.5-2.3c0-1.4-0.9-2.3-2.5-2.3H1140.3z M1149.6,220.7h1.4V232h-1.4V220.7z"/>
				<path fill="#666666" d="M1164.4,232v-9.3h-0.1l-4,9.3h-1.2l-4-9.3h-0.1v9.3h-1.4v-11.3h1.8l4.2,9.8l4.2-9.8h1.8V232H1164.4z"/>
				<path fill="#666666" d="M952.6,250.5c-0.4-1.7-1.4-2.7-3.2-2.7c-2.6,0-4,2.4-4,4.8s1.3,4.8,4,4.8c1.7,0,3.1-1.4,3.3-3.2h1.4
					c-0.4,2.7-2.1,4.4-4.7,4.4c-3.4,0-5.3-2.7-5.3-6s1.9-6,5.3-6c2.4,0,4.2,1.3,4.6,3.9H952.6z"/>
				<path fill="#666666" d="M970.2,258.3v-10.1h-4.6l-0.2,6.4c-0.1,3.1-1.2,4.1-2.9,4.1c-0.4,0-0.9-0.1-1.2-0.2v-1.1
					c0.4,0.2,0.7,0.2,1.1,0.2c1,0,1.5-0.5,1.6-3l0.2-7.4h7.3v11.3H970.2z"/>
				<path fill="#666666" d="M989,252.6c0,3.2-1.9,6-5.3,6c-3.3,0-5.2-2.5-5.3-5.7h-2.5v5.3h-1.4V247h1.4v4.8h2.6
					c0.3-2.9,2.1-5.1,5.3-5.1C987.1,246.6,989,249.4,989,252.6z M979.7,252.6c0,2.4,1.3,4.8,4,4.8c2.6,0,4-2.4,4-4.8s-1.3-4.8-4-4.8
					C981,247.8,979.7,250.2,979.7,252.6z"/>
				<path fill="#666666" d="M996.1,258.6c-3.4,0-5.2-2.5-5.2-6.5c0-5.4,1.4-8.2,5.4-8.6l1.7-0.2c1.2-0.1,1.5-0.3,1.6-0.7h1.5
					c-0.3,1.3-0.9,1.8-2.8,2l-1.7,0.2c-2.5,0.2-3.9,1.4-4.4,4.9h0.1c0.8-1.6,2.3-2.5,4.2-2.5c2.9,0,5,2.3,5,5.7
					C1001.4,256.3,999.2,258.6,996.1,258.6z M996.3,248.3c-2.3,0-4,1.7-4,4.5c0,2.7,1.6,4.6,3.9,4.6c2.2,0,3.8-1.7,3.8-4.6
					C1000,250.1,998.4,248.3,996.3,248.3z"/>
				<path fill="#666666" d="M1013.8,252.6c0,3.2-1.9,6-5.3,6c-3.4,0-5.3-2.7-5.3-6s1.9-6,5.3-6
					C1011.9,246.6,1013.8,249.4,1013.8,252.6z M1004.5,252.6c0,2.4,1.3,4.8,4,4.8c2.6,0,4-2.4,4-4.8s-1.3-4.8-4-4.8
					C1005.8,247.8,1004.5,250.2,1004.5,252.6z"/>
				<path fill="#666666" d="M1017.4,248.1v10.1h-1.4V247h7.4v1.2H1017.4z"/>
				<path fill="#666666" d="M1034.6,252.6c0,3.2-1.9,6-5.3,6c-3.4,0-5.3-2.7-5.3-6s1.9-6,5.3-6
					C1032.7,246.6,1034.6,249.4,1034.6,252.6z M1025.3,252.6c0,2.4,1.3,4.8,4,4.8c2.6,0,4-2.4,4-4.8s-1.3-4.8-4-4.8
					C1026.6,247.8,1025.3,250.2,1025.3,252.6z"/>
				<path fill="#666666" d="M1041.9,247h1.5l3.7,9.6l3.5-9.6h1.4l-4.9,13c-0.8,1.9-1.2,2.5-3,2.5c-0.5,0-0.8,0-1.1-0.1v-1.2
					c0.3,0.1,0.6,0.1,0.9,0.1c1.2,0,1.5-0.7,2-1.8l0.5-1.3L1041.9,247z"/>
				<path fill="#666666" d="M1061.3,250.5c-0.4-1.7-1.4-2.7-3.2-2.7c-2.6,0-4,2.4-4,4.8s1.3,4.8,4,4.8c1.7,0,3.1-1.4,3.3-3.2h1.4
					c-0.4,2.7-2.1,4.4-4.7,4.4c-3.4,0-5.3-2.7-5.3-6s1.9-6,5.3-6c2.4,0,4.2,1.3,4.6,3.9H1061.3z"/>
				<path fill="#666666" d="M1069.1,248.1v10.1h-1.4v-10.1h-4.2V247h9.8v1.2H1069.1z"/>
				<path fill="#666666" d="M1074.8,247h1.3v2.1h0c0.6-1.6,2.2-2.5,4-2.5c3.4,0,5.1,2.8,5.1,6s-1.6,6-5.1,6c-1.7,0-3.3-0.8-3.9-2.5
					h0v6.3h-1.4V247z M1080.2,247.8c-3.1,0-4,2.3-4,4.8c0,2.3,1.1,4.8,4,4.8c2.6,0,3.7-2.5,3.7-4.8S1082.8,247.8,1080.2,247.8z"/>
				<path fill="#666666" d="M1097.7,252.6c0,3.2-1.9,6-5.3,6c-3.4,0-5.3-2.7-5.3-6s1.9-6,5.3-6
					C1095.8,246.6,1097.7,249.4,1097.7,252.6z M1088.4,252.6c0,2.4,1.3,4.8,4,4.8s4-2.4,4-4.8s-1.3-4.8-4-4.8
					S1088.4,250.2,1088.4,252.6z"/>
				<path fill="#666666" d="M1107.8,258.3v-9.7l-6.1,9.7h-1.7V247h1.4v9.7l6.1-9.7h1.7v11.3H1107.8z M1102.5,242.4
					c0.1,1.2,1.2,1.8,2.3,1.8c1.1,0,2.1-0.7,2.3-1.8h0.9c-0.2,1.7-1.4,2.8-3.2,2.8c-1.8,0-3-1-3.1-2.8H1102.5z"/>
				<path fill="#666666" d="M1120,250.5c-0.4-1.7-1.4-2.7-3.2-2.7c-2.6,0-4,2.4-4,4.8s1.3,4.8,4,4.8c1.7,0,3.1-1.4,3.3-3.2h1.4
					c-0.4,2.7-2.1,4.4-4.7,4.4c-3.4,0-5.3-2.7-5.3-6s1.9-6,5.3-6c2.4,0,4.3,1.3,4.6,3.9H1120z"/>
				<path fill="#666666" d="M1127.8,248.1v10.1h-1.4v-10.1h-4.2V247h9.8v1.2H1127.8z"/>
				<path fill="#666666" d="M1138.8,258.3h-5.3V247h5.3c2.3,0,3.5,1.1,3.5,2.8c0,1.3-0.8,2.1-1.9,2.4v0c1.5,0.3,2.4,1.2,2.4,2.8
					C1142.9,257.2,1141.4,258.3,1138.8,258.3z M1138.7,248.1h-3.8v3.7h3.8c1.6,0,2.4-0.7,2.4-1.8
					C1141.1,248.8,1140.3,248.1,1138.7,248.1z M1138.7,252.9h-3.8v4.2h3.8c1.9,0,2.8-0.7,2.8-2.1
					C1141.5,253.7,1140.6,252.9,1138.7,252.9z"/>
				<path fill="#666666" d="M1145,250.4c0.2-2.7,2-3.8,4.6-3.8c2,0,4.2,0.6,4.2,3.6v6c0,0.5,0.3,0.8,0.8,0.8c0.2,0,0.3,0,0.4-0.1
					v1.2c-0.3,0.1-0.5,0.1-0.9,0.1c-1.4,0-1.6-0.8-1.6-2h0c-1,1.5-1.9,2.3-4.1,2.3c-2.1,0-3.8-1-3.8-3.3c0-3.2,3.1-3.3,6.1-3.6
					c1.1-0.1,1.8-0.3,1.8-1.5c0-1.9-1.3-2.3-3-2.3c-1.7,0-3,0.8-3,2.6H1145z M1152.4,252.1L1152.4,252.1c-0.2,0.3-0.8,0.4-1.2,0.5
					c-2.3,0.4-5.3,0.4-5.3,2.6c0,1.4,1.2,2.2,2.5,2.2c2.1,0,3.9-1.3,3.9-3.5V252.1z"/>
			</g>
		</g>
	</g>
</g>
</svg>
