<?xml version="1.0" encoding="utf-8"?>
<!-- Generator: Adobe Illustrator 18.0.0, SVG Export Plug-In . SVG Version: 6.00 Build 0)  -->
<!DOCTYPE svg PUBLIC "-//W3C//DTD SVG 1.1//EN" "http://www.w3.org/Graphics/SVG/1.1/DTD/svg11.dtd">
<svg version="1.1" id="Слой_1" xmlns="http://www.w3.org/2000/svg" xmlns:xlink="http://www.w3.org/1999/xlink" x="0px" y="0px"
	 viewBox="0 0 1000 1000" enable-background="new 0 0 1000 1000" xml:space="preserve">
<g>
	<rect width="1000" height="1000"/>
	<g enable-background="new    ">
		<path fill="#FFFFFF" d="M412.5,661.2c-24.3,22.8-59,34.2-104,34.2c-46,0-81.9-10.9-107.8-32.8c-25.8-21.8-38.8-56.6-38.8-104.2
			v-228h47.5v228c0,32,8.5,56.2,25.5,72.8s41.5,24.8,73.5,24.8c30.3,0,53.4-8.2,69.2-24.8c15.8-16.5,23.8-40.8,23.8-72.8v-228H449
			v228C449,604.2,436.8,638.4,412.5,661.2z"/>
		<path fill="#FFFFFF" d="M740.7,381c-18.2-12.7-39.8-19-64.8-19c-21.3,0-39.6,4-54.8,12c-15.2,8-27.7,18.8-37.5,32.2
			c-9.8,13.5-17.1,28.9-21.8,46.2c-4.7,17.3-7,35.3-7,54c0,20.3,2.3,39.6,7,57.8c4.7,18.2,11.9,34,21.8,47.5
			c9.8,13.5,22.4,24.2,37.8,32.2c15.3,8,33.7,12,55,12c15.7,0,29.6-2.6,41.8-7.8c12.2-5.2,22.7-12.3,31.5-21.5
			c8.8-9.2,15.8-20.1,20.8-32.8c5-12.7,8-26.3,9-41H827c-4.7,45-20.2,80-46.5,105c-26.3,25-62.3,37.5-108,37.5
			c-27.7,0-51.8-4.8-72.5-14.2c-20.7-9.5-37.8-22.6-51.5-39.2c-13.7-16.7-23.9-36.3-30.8-59c-6.8-22.7-10.2-47-10.2-73
			c0-26,3.7-50.4,11-73.3c7.3-22.8,18.1-42.8,32.2-59.8c14.2-17,31.8-30.4,53-40.2c21.2-9.8,45.4-14.8,72.8-14.8
			c18.7,0,36.3,2.5,53,7.5c16.7,5,31.5,12.3,44.5,22c13,9.7,23.8,21.8,32.5,36.2c8.7,14.5,14.3,31.2,17,50.2H776
			C770.7,412.7,758.9,393.7,740.7,381z"/>
	</g>
</g>
</svg>
